#N canvas 470 165 806 546 10;
#X obj 66 104 unpackOSC;
#X obj 72 332 packOSC;
#X obj 181 214 send fromGUI;
#X obj 65 78 udpreceive 54300;
#X msg 86 383 connect localhost 54310;
#X obj 68 282 receive toGUI;
#X obj 79 214 send fromSystem;
#X obj 477 196 send fromNetwork;
#X obj 251 281 receive toSystem;
#X obj 496 240 receive toNetwork;
#X obj 251 314 list trim;
#X msg 137 418 disconnect;
#X obj 180 188 list;
#X obj 79 184 list;
#X obj 70 306 list trim;
#X obj 509 358 udpsend;
#X obj 502 292 packOSC;
#X obj 500 266 list trim;
#X obj 477 146 unpackOSC;
#X msg 567 362 disconnect;
#X obj 475 168 list;
#X obj 251 356 packOSC;
#X floatatom 37 185 5 0 0 0 - - -;
#N canvas 818 136 803 436 udpreceive 0;
#X obj 77 355 outlet;
#X obj 77 326 r \$0-to.out1;
#X obj 197 355 outlet;
#X obj 197 326 r \$0-to.out2;
#X obj 98 67 inlet;
#N canvas 907 552 450 300 \$0-patch-space 0;
#X obj 20 20 udpreceive 54321;
#X obj 20 50 send 1002-to.out1;
#X obj 150 50 send 1002-to.out2;
#X connect 0 0 1 0;
#X connect 0 1 2 0;
#X restore 102 263 pd \$0-patch-space;
#X obj 98 199 s pd-\$0-patch-space;
#X msg 98 150 clear \, obj 20 20 udpreceive \$1 \, obj 20 50 send \$2-to.out1
\, obj 150 50 send \$2-to.out2 \, connect 0 0 1 0 \, connect 0 1 2
0;
#X obj 98 115 pack \$1 \$0;
#X text 318 89 thanks to "udpreceive.mmb" by .mmb;
#X connect 1 0 0 0;
#X connect 3 0 2 0;
#X connect 4 0 8 0;
#X connect 7 0 6 0;
#X connect 8 0 7 0;
#X restore 474 110 pd udpreceive 54321;
#X msg 322 344 prefix /system;
#X obj 450 13 loadbang;
#X obj 449 41 trigger b b b;
#X msg 475 72 /system requestPort;
#X text 22 -44 Don't change this patch! Just leave it open \, it fakes
the interface-to-Pd communication that happens internally in the iOS
app. I recommend you only have one MobMuPlat docment open and interacting
with Pd at a time \, otherwise things (network port numbers \, etc)
can get confused...;
#X obj 64 127 routeOSC /system;
#X obj 47 156 routeOSC /port;
#X obj 619 99 loadbang;
#X msg 621 131 54321;
#X obj 67 419 udpsend;
#X msg 523 334 connect 224.0.0.1 54321;
#X msg 497 397 disconnect \, connect 224.0.0.1 \$1;
#X obj 516 14 bng 15 250 50 0 empty empty empty 17 7 0 10 -262144 -1
-1;
#X obj 197 105 print;
#X obj 457 432 routeOSC /send;
#X obj 458 456 t b;
#X obj 459 497 print error;
#X msg 452 474 LANDINI messages are not implemented in this simulator
;
#X text 516 -14 hit this bang to reconnect;
#X connect 0 0 29 0;
#X connect 0 0 37 0;
#X connect 1 0 33 0;
#X connect 3 0 0 0;
#X connect 4 0 33 0;
#X connect 5 0 14 0;
#X connect 8 0 10 0;
#X connect 9 0 17 0;
#X connect 10 0 21 0;
#X connect 11 0 33 0;
#X connect 12 0 2 0;
#X connect 13 0 6 0;
#X connect 14 0 1 0;
#X connect 16 0 15 0;
#X connect 17 0 16 0;
#X connect 17 0 38 0;
#X connect 18 0 20 0;
#X connect 19 0 15 0;
#X connect 20 0 7 0;
#X connect 21 0 33 0;
#X connect 22 0 35 0;
#X connect 22 0 23 0;
#X connect 23 0 18 0;
#X connect 24 0 21 0;
#X connect 25 0 26 0;
#X connect 26 1 27 0;
#X connect 26 2 23 0;
#X connect 26 2 34 0;
#X connect 26 2 24 0;
#X connect 26 2 4 0;
#X connect 27 0 1 0;
#X connect 29 0 30 0;
#X connect 29 1 12 0;
#X connect 30 0 22 0;
#X connect 30 1 13 0;
#X connect 31 0 32 0;
#X connect 32 0 23 0;
#X connect 34 0 15 0;
#X connect 35 0 15 0;
#X connect 36 0 26 0;
#X connect 38 0 39 0;
#X connect 39 0 41 0;
#X connect 41 0 40 0;
