#N canvas 23 32 716 596 10;
#N canvas 171 74 1000 786 MIDIStepSequencerSub 0;
#X obj 217 112 hradio 15 1 0 32 empty empty empty 0 -8 0 10 -262144
-1 -1 0;
#X floatatom 243 26 5 0 0 0 - - -;
#X obj 217 44 metro;
#X obj 217 66 f;
#X obj 217 88 mod 32;
#X obj 246 66 + 1;
#X obj 570 484 mtof;
#X obj 182 398 f;
#X obj 204 398 f;
#X obj 226 398 f;
#X obj 248 398 f;
#X obj 270 398 f;
#X obj 292 398 f;
#X obj 314 398 f;
#X obj 336 398 f;
#X obj 358 398 f;
#X obj 380 398 f;
#X obj 402 398 f;
#X obj 424 398 f;
#X obj 446 398 f;
#X obj 468 398 f;
#X obj 490 398 f;
#X obj 512 398 f;
#X obj 534 398 f;
#X obj 556 398 f;
#X obj 578 398 f;
#X obj 600 398 f;
#X obj 622 398 f;
#X obj 644 398 f;
#X obj 666 398 f;
#X obj 688 398 f;
#X obj 710 398 f;
#X obj 732 398 f;
#X obj 754 398 f;
#X obj 776 398 f;
#X obj 798 398 f;
#X obj 820 398 f;
#X obj 842 398 f;
#X obj 864 398 f;
#X obj 190 258 vsl 15 128 0 127 0 0 empty empty empty 0 -9 0 10 -262144
-1 -1 0 1;
#X obj 210 258 vsl 15 128 0 127 0 0 empty empty empty 0 -9 0 10 -262144
-1 -1 0 1;
#X obj 232 258 vsl 15 128 0 127 0 0 empty empty empty 0 -9 0 10 -262144
-1 -1 0 1;
#X obj 255 258 vsl 15 128 0 127 0 0 empty empty empty 0 -9 0 10 -262144
-1 -1 0 1;
#X obj 276 258 vsl 15 128 0 127 0 0 empty empty empty 0 -9 0 10 -262144
-1 -1 0 1;
#X obj 296 258 vsl 15 128 0 127 0 0 empty empty empty 0 -9 0 10 -262144
-1 -1 0 1;
#X obj 318 258 vsl 15 128 0 127 0 0 empty empty empty 0 -9 0 10 -262144
-1 -1 0 1;
#X obj 341 258 vsl 15 128 0 127 0 0 empty empty empty 0 -9 0 10 -262144
-1 -1 0 1;
#X obj 365 258 vsl 15 128 0 127 0 0 empty empty empty 0 -9 0 10 -262144
-1 -1 0 1;
#X obj 385 258 vsl 15 128 0 127 0 0 empty empty empty 0 -9 0 10 -262144
-1 -1 0 1;
#X obj 407 258 vsl 15 128 0 127 0 0 empty empty empty 0 -9 0 10 -262144
-1 -1 0 1;
#X obj 430 258 vsl 15 128 0 127 0 0 empty empty empty 0 -9 0 10 -262144
-1 -1 0 1;
#X obj 453 258 vsl 15 128 0 127 0 0 empty empty empty 0 -9 0 10 -262144
-1 -1 0 1;
#X obj 473 258 vsl 15 128 0 127 0 0 empty empty empty 0 -9 0 10 -262144
-1 -1 0 1;
#X obj 495 258 vsl 15 128 0 127 0 0 empty empty empty 0 -9 0 10 -262144
-1 -1 0 1;
#X obj 518 258 vsl 15 128 0 127 0 0 empty empty empty 0 -9 0 10 -262144
-1 -1 0 1;
#X obj 540 258 vsl 15 128 0 127 0 0 empty empty empty 0 -9 0 10 -262144
-1 -1 0 1;
#X obj 561 258 vsl 15 128 0 127 0 0 empty empty empty 0 -9 0 10 -262144
-1 -1 0 1;
#X obj 582 258 vsl 15 128 0 127 0 0 empty empty empty 0 -9 0 10 -262144
-1 -1 0 1;
#X obj 605 258 vsl 15 128 0 127 0 0 empty empty empty 0 -9 0 10 -262144
-1 -1 0 1;
#X obj 628 258 vsl 15 128 0 127 0 0 empty empty empty 0 -9 0 10 -262144
-1 -1 0 1;
#X obj 648 258 vsl 15 128 0 127 0 0 empty empty empty 0 -9 0 10 -262144
-1 -1 0 1;
#X obj 670 258 vsl 15 128 0 127 0 0 empty empty empty 0 -9 0 10 -262144
-1 -1 0 1;
#X obj 693 258 vsl 15 128 0 127 0 0 empty empty empty 0 -9 0 10 -262144
-1 -1 0 1;
#X obj 717 258 vsl 15 128 0 127 0 0 empty empty empty 0 -9 0 10 -262144
-1 -1 0 1;
#X obj 737 258 vsl 15 128 0 127 0 0 empty empty empty 0 -9 0 10 -262144
-1 -1 0 1;
#X obj 759 258 vsl 15 128 0 127 0 0 empty empty empty 0 -9 0 10 -262144
-1 -1 0 1;
#X obj 782 258 vsl 15 128 0 127 0 0 empty empty empty 0 -9 0 10 -262144
-1 -1 0 1;
#X obj 805 258 vsl 15 128 0 127 0 0 empty empty empty 0 -9 0 10 -262144
-1 -1 0 1;
#X obj 825 258 vsl 15 128 0 127 0 0 empty empty empty 0 -9 0 10 -262144
-1 -1 0 1;
#X obj 847 258 vsl 15 128 0 127 0 0 empty empty empty 0 -9 0 10 -262144
-1 -1 0 1;
#X obj 870 258 vsl 15 128 0 127 0 0 empty empty empty 0 -9 0 10 -262144
-1 -1 0 1;
#X obj 351 191 route 0 1 2 3 4 5 6 7 8 9 10 11 12 13 14 15 16 17 18
19 20 21 22 23 24 25 26 27 28 29 30 31 32;
#X obj 303 167 pack;
#X obj 886 398 f;
#X obj 891 258 vsl 15 128 0 127 0 0 empty empty empty 0 -9 0 10 -262144
-1 -1 0 1;
#X obj 243 -30 loadbang;
#X msg 243 -1 270.27;
#X obj 351 167 spigot;
#X obj 570 716 *~ 0.1;
#X obj 608 626 osc~;
#X obj 651 627 osc~;
#X obj 694 627 osc~;
#X obj 737 627 osc~;
#X obj 780 626 osc~;
#X obj 823 626 osc~;
#X obj 608 604 * 2;
#X obj 651 603 * 3;
#X obj 694 603 * 4;
#X obj 737 603 * 5;
#X obj 780 603 * 6;
#X obj 823 603 * 7;
#X obj 613 647 * 0.5;
#X obj 657 647 * 0.33333;
#X obj 720 647 * 0.25;
#X obj 765 647 * 0.2;
#X obj 803 647 * 0.166666;
#X obj 871 647 * 0.142857;
#X obj 608 669 *~ 0.1;
#X obj 651 669 *~ 0.1;
#X obj 694 669 *~ 0.1;
#X obj 737 669 *~ 0.1;
#X obj 780 669 *~ 0.1;
#X obj 823 669 *~ 0.1;
#X obj 574 627 osc~;
#X obj 410 694 vline~;
#X obj 572 775 *~;
#X msg 384 641 1 20 \, 0 100 100;
#X floatatom 52 141 5 0 0 0 - - -;
#X floatatom 46 194 5 0 0 0 - - -;
#X obj 51 161 % 12;
#X obj -89 221 select 0 1 2 3 4 5 6 7 8 9 10 11;
#X msg -97 298 0;
#X msg -84 317 0;
#X msg -63 298 2;
#X msg -53 317 2;
#X msg -29 298 4;
#X msg -17 317 5;
#X msg 4 298 5;
#X msg 14 317 7;
#X msg 36 298 7;
#X msg 46 317 9;
#X msg 68 298 9;
#X msg 79 318 11;
#X msg 98 298 11;
#X floatatom 30 510 5 0 0 0 - - -;
#X obj 30 449 / 12;
#X obj 28 481 int;
#X obj 36 557 * 12;
#X floatatom 38 593 5 0 0 0 - - -;
#X obj 132 601 +;
#X floatatom 130 667 5 0 0 0 - - -;
#X obj 228 133 select 0 1 2 3 4 5 6 7 8 9 10 11 12 13 14 15 16 17 18
19 20 21 22 23 24 25 26 27 28 29 30 31;
#X obj 573 797 lop~;
#X obj 515 588 sig~ 0;
#X obj 517 625 phasor~;
#X obj 468 768 +~;
#X obj 52 98 inlet;
#X text -80 18 Inlet 1 - Slider 36-60 \, Inlet 2 & 3 - Toggle;
#X obj 203 -5 inlet;
#X obj 461 11 inlet;
#X obj 573 855 outlet~;
#X obj 806 732 inlet;
#X obj 572 824 *~ 0.3;
#X connect 0 0 72 0;
#X connect 0 0 131 0;
#X connect 1 0 2 1;
#X connect 2 0 3 0;
#X connect 2 0 106 0;
#X connect 3 0 4 0;
#X connect 3 0 5 0;
#X connect 4 0 0 0;
#X connect 5 0 3 1;
#X connect 6 0 78 0;
#X connect 6 0 103 0;
#X connect 6 0 85 0;
#X connect 6 0 86 0;
#X connect 6 0 87 0;
#X connect 6 0 88 0;
#X connect 6 0 89 0;
#X connect 6 0 90 0;
#X connect 6 0 133 0;
#X connect 7 0 6 0;
#X connect 8 0 6 0;
#X connect 9 0 6 0;
#X connect 10 0 6 0;
#X connect 11 0 6 0;
#X connect 12 0 6 0;
#X connect 13 0 6 0;
#X connect 14 0 6 0;
#X connect 15 0 6 0;
#X connect 16 0 6 0;
#X connect 17 0 6 0;
#X connect 18 0 6 0;
#X connect 19 0 6 0;
#X connect 20 0 6 0;
#X connect 21 0 6 0;
#X connect 22 0 6 0;
#X connect 23 0 6 0;
#X connect 24 0 6 0;
#X connect 25 0 6 0;
#X connect 26 0 6 0;
#X connect 27 0 6 0;
#X connect 28 0 6 0;
#X connect 29 0 6 0;
#X connect 30 0 6 0;
#X connect 31 0 6 0;
#X connect 32 0 6 0;
#X connect 33 0 6 0;
#X connect 34 0 6 0;
#X connect 35 0 6 0;
#X connect 36 0 6 0;
#X connect 37 0 6 0;
#X connect 38 0 6 0;
#X connect 39 0 7 1;
#X connect 40 0 8 1;
#X connect 41 0 9 1;
#X connect 42 0 10 1;
#X connect 43 0 11 1;
#X connect 44 0 12 1;
#X connect 45 0 13 1;
#X connect 46 0 14 1;
#X connect 47 0 15 1;
#X connect 48 0 16 1;
#X connect 49 0 17 1;
#X connect 50 0 18 1;
#X connect 51 0 19 1;
#X connect 52 0 20 1;
#X connect 53 0 21 1;
#X connect 54 0 22 1;
#X connect 55 0 23 1;
#X connect 56 0 24 1;
#X connect 57 0 25 1;
#X connect 58 0 26 1;
#X connect 59 0 27 1;
#X connect 60 0 28 1;
#X connect 61 0 29 1;
#X connect 62 0 30 1;
#X connect 63 0 31 1;
#X connect 64 0 32 1;
#X connect 65 0 33 1;
#X connect 66 0 34 1;
#X connect 67 0 35 1;
#X connect 68 0 36 1;
#X connect 69 0 37 1;
#X connect 70 0 38 1;
#X connect 71 0 39 0;
#X connect 71 1 40 0;
#X connect 71 2 41 0;
#X connect 71 3 42 0;
#X connect 71 4 43 0;
#X connect 71 5 44 0;
#X connect 71 6 45 0;
#X connect 71 7 46 0;
#X connect 71 8 47 0;
#X connect 71 9 48 0;
#X connect 71 10 49 0;
#X connect 71 11 50 0;
#X connect 71 12 51 0;
#X connect 71 13 52 0;
#X connect 71 14 53 0;
#X connect 71 15 54 0;
#X connect 71 16 55 0;
#X connect 71 17 56 0;
#X connect 71 18 57 0;
#X connect 71 19 58 0;
#X connect 71 20 59 0;
#X connect 71 21 60 0;
#X connect 71 22 61 0;
#X connect 71 23 62 0;
#X connect 71 24 63 0;
#X connect 71 25 64 0;
#X connect 71 26 65 0;
#X connect 71 27 66 0;
#X connect 71 28 67 0;
#X connect 71 29 68 0;
#X connect 71 30 69 0;
#X connect 71 31 70 0;
#X connect 71 32 74 0;
#X connect 72 0 77 0;
#X connect 73 0 6 0;
#X connect 74 0 73 1;
#X connect 75 0 76 0;
#X connect 76 0 1 0;
#X connect 77 0 71 0;
#X connect 78 0 135 1;
#X connect 79 0 97 0;
#X connect 80 0 98 0;
#X connect 81 0 99 0;
#X connect 82 0 100 0;
#X connect 83 0 101 0;
#X connect 84 0 102 0;
#X connect 85 0 79 0;
#X connect 86 0 80 0;
#X connect 87 0 81 0;
#X connect 88 0 82 0;
#X connect 89 0 83 0;
#X connect 90 0 84 0;
#X connect 91 0 97 1;
#X connect 92 0 98 1;
#X connect 93 0 99 1;
#X connect 94 0 100 1;
#X connect 95 0 101 1;
#X connect 96 0 102 1;
#X connect 97 0 78 0;
#X connect 98 0 78 0;
#X connect 99 0 78 0;
#X connect 100 0 78 0;
#X connect 101 0 78 0;
#X connect 102 0 78 0;
#X connect 103 0 78 0;
#X connect 104 0 105 1;
#X connect 105 0 132 0;
#X connect 106 0 104 0;
#X connect 107 0 109 0;
#X connect 107 0 125 0;
#X connect 108 0 110 0;
#X connect 109 0 108 0;
#X connect 110 0 111 0;
#X connect 110 1 112 0;
#X connect 110 2 113 0;
#X connect 110 3 114 0;
#X connect 110 4 115 0;
#X connect 110 5 116 0;
#X connect 110 6 117 0;
#X connect 110 7 118 0;
#X connect 110 8 119 0;
#X connect 110 9 120 0;
#X connect 110 10 121 0;
#X connect 110 11 122 0;
#X connect 110 12 123 0;
#X connect 111 0 129 1;
#X connect 112 0 129 1;
#X connect 113 0 129 1;
#X connect 115 0 129 1;
#X connect 116 0 129 1;
#X connect 117 0 129 1;
#X connect 118 0 129 1;
#X connect 119 0 129 1;
#X connect 120 0 129 1;
#X connect 121 0 129 1;
#X connect 122 0 129 1;
#X connect 123 0 129 1;
#X connect 124 0 127 0;
#X connect 125 0 126 0;
#X connect 126 0 124 0;
#X connect 127 0 128 0;
#X connect 128 0 129 0;
#X connect 129 0 130 0;
#X connect 130 0 72 1;
#X connect 131 0 7 0;
#X connect 131 1 8 0;
#X connect 131 2 9 0;
#X connect 131 3 10 0;
#X connect 131 4 11 0;
#X connect 131 5 12 0;
#X connect 131 6 13 0;
#X connect 131 7 14 0;
#X connect 131 8 15 0;
#X connect 131 9 16 0;
#X connect 131 10 17 0;
#X connect 131 11 18 0;
#X connect 131 12 19 0;
#X connect 131 13 20 0;
#X connect 131 14 21 0;
#X connect 131 15 22 0;
#X connect 131 16 23 0;
#X connect 131 17 24 0;
#X connect 131 18 25 0;
#X connect 131 19 26 0;
#X connect 131 20 27 0;
#X connect 131 21 28 0;
#X connect 131 22 29 0;
#X connect 131 23 30 0;
#X connect 131 24 31 0;
#X connect 131 25 32 0;
#X connect 131 26 33 0;
#X connect 131 27 34 0;
#X connect 131 28 35 0;
#X connect 131 29 36 0;
#X connect 131 30 37 0;
#X connect 131 31 38 0;
#X connect 132 0 142 0;
#X connect 133 0 134 0;
#X connect 134 0 135 0;
#X connect 135 0 105 0;
#X connect 136 0 107 0;
#X connect 138 0 2 0;
#X connect 139 0 77 1;
#X connect 141 0 132 1;
#X connect 142 0 140 0;
#X restore 108 271 pd MIDIStepSequencerSub;
#N canvas 0 22 450 300 SampleLooperSub 0;
#X obj 24 410 *~ 0.7;
#X obj 175 75 bng 15 250 50 0 empty empty empty 17 7 0 10 -262144 -1
-1;
#X obj 197 75 bng 15 250 50 0 empty empty empty 17 7 0 10 -262144 -1
-1;
#X obj 222 75 bng 15 250 50 0 empty empty empty 17 7 0 10 -262144 -1
-1;
#X obj 247 75 bng 15 250 50 0 empty empty empty 17 7 0 10 -262144 -1
-1;
#X obj 26 318 bng 15 250 50 0 empty empty empty 17 7 0 10 -262144 -1
-1;
#X obj 170 48 select 0 1 2;
#N canvas 0 22 450 300 (subpatch) 0;
#X array sampleplayer 414767 float 2;
#X coords 0 1 414767 -1 200 140 1 0 0;
#X restore 258 362 graph;
#X msg 94 110 read -resize Chords_1.wav sampleplayer;
#X msg 121 133 read -resize Chords_2.wav sampleplayer;
#X obj 118 273 soundfiler;
#X floatatom 120 311 5 0 0 0 - - -;
#X obj 16 378 tabplay~ sampleplayer;
#X msg 147 157 read -resize Chords_3.wav sampleplayer;
#X msg 173 182 read -resize Chords_4.wav sampleplayer;
#X text 351 23 Inlet 1 - Toggle \, Inlet 2 - HRadio 4;
#X obj 26 444 outlet~;
#X obj 172 10 inlet;
#X obj 70 298 inlet;
#X obj 78 61 loadbang;
#X obj 27 346 spigot 1;
#X obj 25 267 inlet;
#X connect 0 0 16 0;
#X connect 1 0 8 0;
#X connect 2 0 9 0;
#X connect 3 0 13 0;
#X connect 4 0 14 0;
#X connect 5 0 20 0;
#X connect 6 0 1 0;
#X connect 6 1 2 0;
#X connect 6 2 3 0;
#X connect 6 3 4 0;
#X connect 8 0 10 0;
#X connect 9 0 10 0;
#X connect 10 0 11 0;
#X connect 12 0 0 0;
#X connect 12 1 5 0;
#X connect 13 0 10 0;
#X connect 14 0 10 0;
#X connect 17 0 6 0;
#X connect 18 0 20 1;
#X connect 19 0 1 0;
#X connect 20 0 12 0;
#X connect 21 0 5 0;
#X restore 302 271 pd SampleLooperSub;
#N canvas 0 22 770 614 SoundFileWriteSub 0;
#X obj 160 38 adc~;
#X obj 159 151 writesf~ 2;
#X obj 289 222 soundfiler;
#X msg 213 59 open test.wav;
#N canvas 0 22 450 300 (subpatch) 0;
#X array test 246208 float 2;
#X coords 0 1 246208 -1 200 140 1;
#X restore 42 219 graph;
#X msg 308 120 \; test normalize;
#X msg 289 200 read test.wav test;
#X floatatom 289 244 10 0 0 0 - - -;
#X obj 728 911 line~;
#X obj 287 271 / 44100;
#X floatatom 287 294 10 0 0 0 - - -;
#X obj 287 314 * 1000;
#X floatatom 287 336 10 0 0 0 - - -;
#X obj 728 934 tabread~ test;
#X obj 287 356 int;
#X floatatom 286 380 5 0 0 0 - - -;
#X obj 727 625 pack 0 0;
#X msg 728 887 0 \, \$1 \$2;
#X msg 728 864 48000 685.398;
#X msg 728 842 set \$1 \$2;
#X obj 741 752 swap;
#X msg 727 646 set \$1 \$2;
#X msg 727 669 685.398 48000;
#X obj 728 691 unpack;
#X floatatom 716 734 8 0 0 0 - - -;
#X floatatom 768 734 10 0 0 0 - - -;
#X obj 767 712 int;
#X obj 695 290 route 0 1 2 3 4 5 6 7 8 9 10 11;
#X obj 487 433 * 0.943874;
#X obj 552 433 * 0.890899;
#X obj 616 433 * 0.840896;
#X obj 681 433 * 0.793701;
#X msg 470 511 set \$1;
#X msg 527 511 set \$1;
#X obj 725 319 bng 15 250 50 0 empty empty empty 17 7 0 10 -262144
-1 -1;
#X msg 470 532 1026.93;
#X msg 527 532 969.298;
#X obj 709 319 bng 15 250 50 0 empty empty empty 17 7 0 10 -262144
-1 -1;
#X obj 571 455 * 0.749154;
#X obj 636 455 * 0.707107;
#X obj 701 455 * 0.66742;
#X obj 757 319 bng 15 250 50 0 empty empty empty 17 7 0 10 -262144
-1 -1;
#X obj 741 319 bng 15 250 50 0 empty empty empty 17 7 0 10 -262144
-1 -1;
#X obj 789 319 bng 15 250 50 0 empty empty empty 17 7 0 10 -262144
-1 -1;
#X obj 773 319 bng 15 250 50 0 empty empty empty 17 7 0 10 -262144
-1 -1;
#X obj 821 319 bng 15 250 50 0 empty empty empty 17 7 0 10 -262144
-1 -1;
#X obj 805 319 bng 15 250 50 0 empty empty empty 17 7 0 10 -262144
-1 -1;
#X obj 853 319 bng 15 250 50 0 empty empty empty 17 7 0 10 -262144
-1 -1;
#X obj 837 319 bng 15 250 50 0 empty empty empty 17 7 0 10 -262144
-1 -1;
#X obj 885 319 bng 15 250 50 0 empty empty empty 17 7 0 10 -262144
-1 -1;
#X obj 869 319 bng 15 250 50 0 empty empty empty 17 7 0 10 -262144
-1 -1;
#X obj 760 455 * 0.629961;
#X obj 639 479 * 0.594604;
#X obj 704 479 * 0.561231;
#X obj 769 479 * 0.529732;
#X obj 834 479 * 0.5;
#X msg 582 511 set \$1;
#X msg 582 532 914.895;
#X msg 636 511 set \$1;
#X msg 636 532 863.547;
#X msg 690 511 set \$1;
#X msg 690 532 815.08;
#X msg 744 511 set \$1;
#X msg 744 532 769.332;
#X msg 797 511 set \$1;
#X msg 797 532 726.153;
#X msg 851 511 set \$1;
#X msg 851 532 685.398;
#X msg 907 511 set \$1;
#X msg 907 532 646.929;
#X msg 962 511 set \$1;
#X msg 962 532 610.619;
#X msg 1016 511 set \$1;
#X msg 1016 532 576.348;
#X msg 1071 511 set \$1;
#X msg 1071 532 544;
#X msg 416 511 set \$1;
#X msg 416 532 1088;
#X obj 694 319 bng 15 250 50 0 empty empty empty 17 7 0 10 -262144
-1 -1;
#X obj 901 615 delay 5;
#X obj 894 732 delay 5;
#X obj 728 819 pack 0 0;
#X obj 253 28 loadbang;
#X msg 97 81 start;
#X msg 121 128 stop;
#X obj 243 106 del 100;
#X text 513 104 Inlet 1 - Bang \, Inlet 2 - 12 step HRadio;
#X obj 728 1022 outlet~;
#X obj 695 265 inlet;
#X obj 59 42 inlet;
#X obj 728 956 *~ 0.6;
#X obj 16 84 del 1005;
#X obj 116 54 del 5;
#X obj 244 85 bng 15 250 50 0 empty empty empty 17 7 0 10 -262144 -1
-1;
#X obj 302 94 del 200;
#X obj 871 900 line;
#X msg 873 845 1 100;
#X msg 948 912 0 200;
#X obj 941 870 delay 300;
#X obj 728 986 *~ 0.6;
#X connect 0 0 1 0;
#X connect 0 1 1 1;
#X connect 2 0 7 0;
#X connect 3 0 1 0;
#X connect 6 0 2 0;
#X connect 7 0 9 0;
#X connect 7 0 16 1;
#X connect 8 0 13 0;
#X connect 9 0 10 0;
#X connect 10 0 11 0;
#X connect 11 0 12 0;
#X connect 12 0 14 0;
#X connect 13 0 90 0;
#X connect 14 0 15 0;
#X connect 15 0 28 0;
#X connect 15 0 29 0;
#X connect 15 0 30 0;
#X connect 15 0 31 0;
#X connect 15 0 38 0;
#X connect 15 0 39 0;
#X connect 15 0 40 0;
#X connect 15 0 51 0;
#X connect 15 0 52 0;
#X connect 15 0 53 0;
#X connect 15 0 54 0;
#X connect 15 0 55 0;
#X connect 15 0 76 0;
#X connect 16 0 21 0;
#X connect 17 0 8 0;
#X connect 18 0 17 0;
#X connect 19 0 18 0;
#X connect 20 0 81 0;
#X connect 20 1 81 1;
#X connect 21 0 22 0;
#X connect 22 0 23 0;
#X connect 23 0 24 0;
#X connect 23 1 26 0;
#X connect 24 0 20 0;
#X connect 25 0 20 1;
#X connect 26 0 25 0;
#X connect 27 0 78 0;
#X connect 27 1 37 0;
#X connect 27 2 34 0;
#X connect 27 3 42 0;
#X connect 27 4 41 0;
#X connect 27 5 44 0;
#X connect 27 6 43 0;
#X connect 27 7 46 0;
#X connect 27 8 45 0;
#X connect 27 9 48 0;
#X connect 27 10 47 0;
#X connect 27 11 50 0;
#X connect 27 12 49 0;
#X connect 28 0 32 0;
#X connect 29 0 33 0;
#X connect 30 0 56 0;
#X connect 31 0 58 0;
#X connect 32 0 35 0;
#X connect 33 0 36 0;
#X connect 34 0 36 0;
#X connect 34 0 79 0;
#X connect 35 0 16 0;
#X connect 36 0 16 0;
#X connect 37 0 35 0;
#X connect 37 0 79 0;
#X connect 38 0 60 0;
#X connect 39 0 62 0;
#X connect 40 0 64 0;
#X connect 41 0 59 0;
#X connect 41 0 79 0;
#X connect 42 0 57 0;
#X connect 42 0 79 0;
#X connect 43 0 63 0;
#X connect 43 0 79 0;
#X connect 44 0 61 0;
#X connect 44 0 79 0;
#X connect 45 0 67 0;
#X connect 45 0 79 0;
#X connect 46 0 65 0;
#X connect 46 0 79 0;
#X connect 47 0 71 0;
#X connect 47 0 79 0;
#X connect 48 0 69 0;
#X connect 48 0 79 0;
#X connect 49 0 75 0;
#X connect 49 0 79 0;
#X connect 50 0 73 0;
#X connect 50 0 79 0;
#X connect 51 0 66 0;
#X connect 52 0 68 0;
#X connect 53 0 70 0;
#X connect 54 0 72 0;
#X connect 55 0 74 0;
#X connect 56 0 57 0;
#X connect 57 0 16 0;
#X connect 58 0 59 0;
#X connect 59 0 16 0;
#X connect 60 0 61 0;
#X connect 61 0 16 0;
#X connect 62 0 63 0;
#X connect 63 0 16 0;
#X connect 64 0 65 0;
#X connect 65 0 16 0;
#X connect 66 0 67 0;
#X connect 67 0 16 0;
#X connect 68 0 69 0;
#X connect 69 0 16 0;
#X connect 70 0 71 0;
#X connect 71 0 16 0;
#X connect 72 0 73 0;
#X connect 73 0 16 0;
#X connect 74 0 75 0;
#X connect 75 0 16 0;
#X connect 76 0 77 0;
#X connect 77 0 16 0;
#X connect 78 0 77 0;
#X connect 78 0 79 0;
#X connect 79 0 22 0;
#X connect 79 0 80 0;
#X connect 80 0 18 0;
#X connect 80 0 96 0;
#X connect 80 0 98 0;
#X connect 81 0 19 0;
#X connect 82 0 3 0;
#X connect 83 0 1 0;
#X connect 84 0 1 0;
#X connect 85 0 6 0;
#X connect 88 0 27 0;
#X connect 89 0 91 0;
#X connect 89 0 92 0;
#X connect 89 0 3 0;
#X connect 90 0 99 0;
#X connect 91 0 84 0;
#X connect 91 0 93 0;
#X connect 92 0 83 0;
#X connect 93 0 85 0;
#X connect 93 0 94 0;
#X connect 94 0 5 0;
#X connect 95 0 90 1;
#X connect 96 0 95 0;
#X connect 97 0 95 0;
#X connect 98 0 97 0;
#X connect 99 0 87 0;
#X restore 480 272 pd SoundFileWriteSub;
#X obj 106 117 vsl 15 128 36 60 0 0 empty empty empty 0 -9 0 10 -262144
-1 -1 0 1;
#X obj 163 223 tgl 15 0 empty empty empty 17 7 0 10 -262144 -1 -1 0
1;
#X obj 236 223 tgl 15 0 empty empty empty 17 7 0 10 -262144 -1 -1 0
1;
#X obj 378 224 hradio 15 1 0 4 empty empty empty 0 -8 0 10 -262144
-1 -1 0;
#X obj 348 224 tgl 15 0 empty empty empty 17 7 0 10 -262144 -1 -1 0
1;
#X obj 478 226 bng 15 250 50 0 empty empty empty 17 7 0 10 -262144
-1 -1;
#X text 37 81 Control Notes for Recording;
#X text 183 189 Start Sequence Record;
#X text 135 133 Start Sequence;
#X text 252 171 Start Sample Playback;
#X text 370 195 Select Sample;
#X text 429 165 Start Vocal Sample Record;
#X text 591 196 Play Notes;
#X obj 316 351 dac~;
#X obj 697 757 hsl 128 15 100 5000 0 0 empty empty empty -2 -8 0 10
-262144 -1 -1 0 1;
#X obj 697 757 hsl 128 15 100 5000 0 0 empty empty empty -2 -8 0 10
-262144 -1 -1 0 1;
#X obj 697 757 hsl 128 15 100 5000 0 0 empty empty empty -2 -8 0 10
-262144 -1 -1 0 1;
#X obj 123 391 hsl 128 15 100 5100 0 0 empty empty empty -2 -8 0 10
-262144 -1 -1 0 1;
#X text 117 355 Control Low Pass Filter;
#X obj 591 226 hsl 128 15 0 11 0 0 empty empty empty -2 -8 0 10 -262144
-1 -1 0 1;
#X obj 589 247 int;
#X obj 304 225 bng 15 250 50 0 empty empty empty 17 7 0 10 -262144
-1 -1;
#X text 306 143 Turn Looping On/Off;
#X obj 369 22 receive fromGUI;
#X obj 369 44 route list;
#X obj 381 72 route /mySlider1 /mySlider2;
#X obj 378 97 route /myGrid;
#X obj 198 123 route /myToggle1 /myToggle2 /myToggle3;
#X obj 546 133 route /myButton1 /myButton2;
#X obj 106 94 + 36;
#X obj 30 317 receive fromSystem;
#X obj 31 347 list trim;
#X obj 31 446 route /tilts /shake;
#X obj 30 473 unpack 0 0;
#X floatatom 31 506 5 0 0 0 - - -;
#X floatatom 92 506 5 0 0 0 - - -;
#X obj 134 523 + 1;
#X obj 174 547 * 2500;
#X obj 261 530 int;
#X obj 301 461 + 100;
#X obj 562 195 * 11;
#X msg 572 407 \; pd dsp 1;
#X obj 571 379 loadbang;
#X connect 0 0 16 0;
#X connect 0 0 16 1;
#X connect 1 0 16 0;
#X connect 1 0 16 1;
#X connect 2 0 16 0;
#X connect 2 0 16 1;
#X connect 3 0 0 0;
#X connect 4 0 0 1;
#X connect 5 0 0 2;
#X connect 6 0 1 2;
#X connect 7 0 1 1;
#X connect 8 0 2 0;
#X connect 20 0 0 3;
#X connect 22 0 23 0;
#X connect 23 0 2 1;
#X connect 24 0 1 0;
#X connect 26 0 27 0;
#X connect 27 0 28 0;
#X connect 27 0 29 0;
#X connect 27 0 30 0;
#X connect 27 0 31 0;
#X connect 28 0 32 0;
#X connect 28 1 43 0;
#X connect 29 0 6 0;
#X connect 30 0 4 0;
#X connect 30 1 5 0;
#X connect 30 2 7 0;
#X connect 31 0 24 0;
#X connect 31 1 8 0;
#X connect 32 0 3 0;
#X connect 33 0 34 0;
#X connect 34 0 35 0;
#X connect 35 0 36 0;
#X connect 36 0 37 0;
#X connect 36 1 38 0;
#X connect 38 0 39 0;
#X connect 39 0 40 0;
#X connect 40 0 41 0;
#X connect 41 0 42 0;
#X connect 42 0 20 0;
#X connect 43 0 22 0;
#X connect 45 0 44 0;
