{
	"patcher" : 	{
		"fileversion" : 1,
		"appversion" : 		{
			"major" : 6,
			"minor" : 1,
			"revision" : 6,
			"architecture" : "x86"
		}
,
		"rect" : [ 44.0, 73.0, 930.0, 618.0 ],
		"bgcolor" : [ 1.0, 1.0, 1.0, 1.0 ],
		"bglocked" : 0,
		"openinpresentation" : 0,
		"default_fontsize" : 10.0,
		"default_fontface" : 0,
		"default_fontname" : "Arial",
		"gridonopen" : 0,
		"gridsize" : [ 15.0, 15.0 ],
		"gridsnaponopen" : 0,
		"statusbarvisible" : 2,
		"toolbarvisible" : 1,
		"boxanimatetime" : 200,
		"imprint" : 1,
		"enablehscroll" : 1,
		"enablevscroll" : 1,
		"devicewidth" : 0.0,
		"description" : "",
		"digest" : "",
		"tags" : "",
		"boxes" : [ 			{
				"box" : 				{
					"background" : 0,
					"bgcolor" : [ 1.0, 1.0, 1.0, 1.0 ],
					"color" : [ 0.8, 0.84, 0.71, 1.0 ],
					"fontface" : 0,
					"fontname" : "Arial",
					"fontsize" : 10.0,
					"hidden" : 0,
					"id" : "obj-69",
					"ignoreclick" : 0,
					"maxclass" : "newobj",
					"numinlets" : 2,
					"numoutlets" : 1,
					"outlettype" : [ "signal" ],
					"patching_rect" : [ 208.25, 531.0, 32.5, 18.0 ],
					"presentation" : 0,
					"presentation_rect" : [ 0.0, 0.0, 0.0, 0.0 ],
					"text" : "*~ 0.",
					"textcolor" : [ 0.0, 0.0, 0.0, 1.0 ],
					"textjustification" : 0
				}

			}
, 			{
				"box" : 				{
					"background" : 0,
					"bgcolor" : [ 1.0, 1.0, 1.0, 1.0 ],
					"bordercolor" : [ 0.5, 0.5, 0.5, 1.0 ],
					"checkedcolor" : [ 0.0, 0.0, 0.0, 1.0 ],
					"hidden" : 0,
					"id" : "obj-68",
					"ignoreclick" : 0,
					"maxclass" : "toggle",
					"numinlets" : 1,
					"numoutlets" : 1,
					"outlettype" : [ "int" ],
					"parameter_enable" : 0,
					"patching_rect" : [ 15.0, 74.0, 20.0, 20.0 ],
					"presentation" : 0,
					"presentation_rect" : [ 0.0, 0.0, 0.0, 0.0 ]
				}

			}
, 			{
				"box" : 				{
					"background" : 0,
					"bgcolor" : [ 1.0, 1.0, 1.0, 1.0 ],
					"color" : [ 0.8, 0.84, 0.71, 1.0 ],
					"fontface" : 0,
					"fontname" : "Arial",
					"fontsize" : 10.0,
					"hidden" : 0,
					"id" : "obj-66",
					"ignoreclick" : 0,
					"maxclass" : "newobj",
					"numinlets" : 6,
					"numoutlets" : 1,
					"outlettype" : [ "" ],
					"patching_rect" : [ 704.0, 287.0, 86.5, 18.0 ],
					"presentation" : 0,
					"presentation_rect" : [ 0.0, 0.0, 0.0, 0.0 ],
					"text" : "scale 0 100 0. 1.",
					"textcolor" : [ 0.0, 0.0, 0.0, 1.0 ],
					"textjustification" : 0
				}

			}
, 			{
				"box" : 				{
					"background" : 0,
					"bgcolor" : [ 1.0, 1.0, 1.0, 1.0 ],
					"color" : [ 0.8, 0.84, 0.71, 1.0 ],
					"fontface" : 0,
					"fontname" : "Arial",
					"fontsize" : 10.0,
					"hidden" : 0,
					"id" : "obj-65",
					"ignoreclick" : 0,
					"maxclass" : "newobj",
					"numinlets" : 6,
					"numoutlets" : 1,
					"outlettype" : [ "" ],
					"patching_rect" : [ 623.0, 287.0, 86.5, 18.0 ],
					"presentation" : 0,
					"presentation_rect" : [ 0.0, 0.0, 0.0, 0.0 ],
					"text" : "scale 0 100 0. 1.",
					"textcolor" : [ 0.0, 0.0, 0.0, 1.0 ],
					"textjustification" : 0
				}

			}
, 			{
				"box" : 				{
					"background" : 0,
					"bgcolor" : [ 1.0, 1.0, 1.0, 1.0 ],
					"bordercolor" : [ 0.5, 0.5, 0.5, 1.0 ],
					"cantchange" : 0,
					"fontface" : 0,
					"fontname" : "Arial",
					"fontsize" : 10.0,
					"hbgcolor" : [ 0.0, 0.0, 0.0, 1.0 ],
					"hidden" : 0,
					"htextcolor" : [ 1.0, 1.0, 1.0, 1.0 ],
					"htricolor" : [ 0.87, 0.82, 0.24, 1.0 ],
					"id" : "obj-64",
					"ignoreclick" : 0,
					"maxclass" : "flonum",
					"maximum" : "<none>",
					"minimum" : "<none>",
					"mouseup" : 0,
					"numdecimalplaces" : 0,
					"numinlets" : 1,
					"numoutlets" : 2,
					"outlettype" : [ "float", "bang" ],
					"outputonclick" : 0,
					"parameter_enable" : 0,
					"patching_rect" : [ 704.0, 320.0, 50.0, 18.0 ],
					"presentation" : 0,
					"presentation_rect" : [ 0.0, 0.0, 0.0, 0.0 ],
					"textcolor" : [ 0.0, 0.0, 0.0, 1.0 ],
					"triangle" : 1,
					"tricolor" : [ 0.75, 0.75, 0.75, 1.0 ],
					"triscale" : 1.0
				}

			}
, 			{
				"box" : 				{
					"background" : 0,
					"bgcolor" : [ 1.0, 1.0, 1.0, 1.0 ],
					"bordercolor" : [ 0.5, 0.5, 0.5, 1.0 ],
					"cantchange" : 0,
					"fontface" : 0,
					"fontname" : "Arial",
					"fontsize" : 10.0,
					"hbgcolor" : [ 0.0, 0.0, 0.0, 1.0 ],
					"hidden" : 0,
					"htextcolor" : [ 1.0, 1.0, 1.0, 1.0 ],
					"htricolor" : [ 0.87, 0.82, 0.24, 1.0 ],
					"id" : "obj-63",
					"ignoreclick" : 0,
					"maxclass" : "flonum",
					"maximum" : "<none>",
					"minimum" : "<none>",
					"mouseup" : 0,
					"numdecimalplaces" : 0,
					"numinlets" : 1,
					"numoutlets" : 2,
					"outlettype" : [ "float", "bang" ],
					"outputonclick" : 0,
					"parameter_enable" : 0,
					"patching_rect" : [ 623.0, 320.0, 50.0, 18.0 ],
					"presentation" : 0,
					"presentation_rect" : [ 0.0, 0.0, 0.0, 0.0 ],
					"textcolor" : [ 0.0, 0.0, 0.0, 1.0 ],
					"triangle" : 1,
					"tricolor" : [ 0.75, 0.75, 0.75, 1.0 ],
					"triscale" : 1.0
				}

			}
, 			{
				"box" : 				{
					"active" : 1,
					"background" : 0,
					"bkgnddrag" : 0,
					"bkgndpict" : "<default>",
					"bkgndsize" : 0,
					"bottommargin" : 0,
					"bottomvalue" : 0,
					"clickedimage" : 1,
					"hidden" : 0,
					"horizontaltracking" : 1.0,
					"id" : "obj-62",
					"ignoreclick" : 0,
					"imagemask" : 0,
					"inactiveimage" : 1,
					"invisiblebkgnd" : 0,
					"jump" : 1,
					"knobpict" : "<default>",
					"leftmargin" : 0,
					"leftvalue" : 0,
					"maxclass" : "pictslider",
					"movehorizontal" : 1,
					"movevertical" : 1,
					"numinlets" : 2,
					"numoutlets" : 2,
					"outlettype" : [ "int", "int" ],
					"parameter_enable" : 0,
					"patching_rect" : [ 623.0, 162.0, 100.0, 100.0 ],
					"presentation" : 0,
					"presentation_rect" : [ 0.0, 0.0, 0.0, 0.0 ],
					"rightmargin" : 0,
					"rightvalue" : 100,
					"scaleknob" : 0,
					"topmargin" : 0,
					"topvalue" : 100,
					"verticaltracking" : 1.0
				}

			}
, 			{
				"box" : 				{
					"background" : 0,
					"bgcolor" : [ 0.867, 0.867, 0.867, 1.0 ],
					"bgcolor2" : [ 0.867, 0.867, 0.867, 1.0 ],
					"fontface" : 0,
					"fontname" : "Arial",
					"fontsize" : 10.0,
					"gradient" : 0,
					"hidden" : 0,
					"id" : "obj-61",
					"ignoreclick" : 0,
					"maxclass" : "message",
					"numinlets" : 2,
					"numoutlets" : 1,
					"outlettype" : [ "" ],
					"patching_rect" : [ 60.0, 60.0, 33.0, 16.0 ],
					"presentation" : 0,
					"presentation_rect" : [ 0.0, 0.0, 0.0, 0.0 ],
					"text" : "open",
					"textcolor" : [ 0.0, 0.0, 0.0, 1.0 ],
					"textjustification" : 0
				}

			}
, 			{
				"box" : 				{
					"background" : 0,
					"bgcolor" : [ 1.0, 1.0, 1.0, 1.0 ],
					"color" : [ 0.8, 0.84, 0.71, 1.0 ],
					"fontface" : 0,
					"fontname" : "Arial",
					"fontsize" : 10.0,
					"hidden" : 0,
					"id" : "obj-59",
					"ignoreclick" : 0,
					"maxclass" : "newobj",
					"numinlets" : 2,
					"numoutlets" : 2,
					"outlettype" : [ "signal", "bang" ],
					"patching_rect" : [ 55.5, 104.0, 42.0, 18.0 ],
					"presentation" : 0,
					"presentation_rect" : [ 0.0, 0.0, 0.0, 0.0 ],
					"save" : [ "#N", "sfplay~", "", 1, 120960, 0, "", ";" ],
					"text" : "sfplay~",
					"textcolor" : [ 0.0, 0.0, 0.0, 1.0 ],
					"textjustification" : 0
				}

			}
, 			{
				"box" : 				{
					"background" : 0,
					"bgcolor" : [ 1.0, 1.0, 1.0, 1.0 ],
					"bordercolor" : [ 0.5, 0.5, 0.5, 1.0 ],
					"cantchange" : 0,
					"fontface" : 0,
					"fontname" : "Arial",
					"fontsize" : 10.0,
					"hbgcolor" : [ 0.0, 0.0, 0.0, 1.0 ],
					"hidden" : 0,
					"htextcolor" : [ 1.0, 1.0, 1.0, 1.0 ],
					"htricolor" : [ 0.87, 0.82, 0.24, 1.0 ],
					"id" : "obj-58",
					"ignoreclick" : 0,
					"maxclass" : "flonum",
					"maximum" : "<none>",
					"minimum" : "<none>",
					"mouseup" : 0,
					"numdecimalplaces" : 0,
					"numinlets" : 1,
					"numoutlets" : 2,
					"outlettype" : [ "float", "bang" ],
					"outputonclick" : 0,
					"parameter_enable" : 0,
					"patching_rect" : [ 242.0, 382.0, 50.0, 18.0 ],
					"presentation" : 0,
					"presentation_rect" : [ 0.0, 0.0, 0.0, 0.0 ],
					"textcolor" : [ 0.0, 0.0, 0.0, 1.0 ],
					"triangle" : 1,
					"tricolor" : [ 0.75, 0.75, 0.75, 1.0 ],
					"triscale" : 1.0
				}

			}
, 			{
				"box" : 				{
					"background" : 0,
					"bgcolor" : [ 1.0, 1.0, 1.0, 1.0 ],
					"color" : [ 0.8, 0.84, 0.71, 1.0 ],
					"fontface" : 0,
					"fontname" : "Arial",
					"fontsize" : 10.0,
					"hidden" : 0,
					"id" : "obj-57",
					"ignoreclick" : 0,
					"maxclass" : "newobj",
					"numinlets" : 2,
					"numoutlets" : 1,
					"outlettype" : [ "signal" ],
					"patching_rect" : [ 173.0, 407.0, 32.5, 18.0 ],
					"presentation" : 0,
					"presentation_rect" : [ 0.0, 0.0, 0.0, 0.0 ],
					"text" : "*~ 0.",
					"textcolor" : [ 0.0, 0.0, 0.0, 1.0 ],
					"textjustification" : 0
				}

			}
, 			{
				"box" : 				{
					"background" : 0,
					"bgcolor" : [ 0.867, 0.867, 0.867, 1.0 ],
					"bgcolor2" : [ 0.867, 0.867, 0.867, 1.0 ],
					"fontface" : 0,
					"fontname" : "Arial",
					"fontsize" : 10.0,
					"gradient" : 0,
					"hidden" : 0,
					"id" : "obj-56",
					"ignoreclick" : 0,
					"maxclass" : "message",
					"numinlets" : 2,
					"numoutlets" : 1,
					"outlettype" : [ "" ],
					"patching_rect" : [ 312.0, 373.0, 32.5, 16.0 ],
					"presentation" : 0,
					"presentation_rect" : [ 0.0, 0.0, 0.0, 0.0 ],
					"text" : "read",
					"textcolor" : [ 0.0, 0.0, 0.0, 1.0 ],
					"textjustification" : 0
				}

			}
, 			{
				"box" : 				{
					"background" : 0,
					"bgcolor" : [ 1.0, 1.0, 1.0, 1.0 ],
					"color" : [ 0.8, 0.84, 0.71, 1.0 ],
					"fontface" : 0,
					"fontname" : "Arial",
					"fontsize" : 11.595187,
					"hidden" : 0,
					"id" : "obj-1",
					"ignoreclick" : 0,
					"maxclass" : "newobj",
					"numinlets" : 0,
					"numoutlets" : 1,
					"outlettype" : [ "" ],
					"patching_rect" : [ 195.0, 263.0, 41.0, 19.0 ],
					"presentation" : 0,
					"presentation_rect" : [ 0.0, 0.0, 0.0, 0.0 ],
					"text" : "r Amp",
					"textcolor" : [ 0.0, 0.0, 0.0, 1.0 ],
					"textjustification" : 0
				}

			}
, 			{
				"box" : 				{
					"background" : 0,
					"bgcolor" : [ 0.867, 0.867, 0.867, 1.0 ],
					"bgcolor2" : [ 0.867, 0.867, 0.867, 1.0 ],
					"fontface" : 0,
					"fontname" : "Arial",
					"fontsize" : 11.595187,
					"gradient" : 0,
					"hidden" : 0,
					"id" : "obj-2",
					"ignoreclick" : 0,
					"linecount" : 3,
					"maxclass" : "message",
					"numinlets" : 2,
					"numoutlets" : 1,
					"outlettype" : [ "" ],
					"patching_rect" : [ 600.0, 414.0, 60.0, 43.0 ],
					"presentation" : 0,
					"presentation_rect" : [ 0.0, 0.0, 0.0, 0.0 ],
					"text" : ";\rAmp 0.5;\rFreq 55.",
					"textcolor" : [ 0.0, 0.0, 0.0, 1.0 ],
					"textjustification" : 0
				}

			}
, 			{
				"box" : 				{
					"background" : 0,
					"bgcolor" : [ 1.0, 1.0, 1.0, 1.0 ],
					"color" : [ 0.8, 0.84, 0.71, 1.0 ],
					"fontface" : 0,
					"fontname" : "Arial",
					"fontsize" : 11.595187,
					"hidden" : 0,
					"id" : "obj-3",
					"ignoreclick" : 0,
					"maxclass" : "newobj",
					"numinlets" : 1,
					"numoutlets" : 1,
					"outlettype" : [ "bang" ],
					"patching_rect" : [ 600.0, 389.0, 58.0, 19.0 ],
					"presentation" : 0,
					"presentation_rect" : [ 0.0, 0.0, 0.0, 0.0 ],
					"text" : "loadbang",
					"textcolor" : [ 0.0, 0.0, 0.0, 1.0 ],
					"textjustification" : 0
				}

			}
, 			{
				"box" : 				{
					"background" : 0,
					"bgcolor" : [ 1.0, 1.0, 1.0, 0.0 ],
					"bubble" : 0,
					"bubblepoint" : 0.5,
					"bubbleside" : 1,
					"bubbletextmargin" : 5,
					"fontface" : 0,
					"fontname" : "Arial",
					"fontsize" : 11.595187,
					"frgb" : 0.0,
					"hidden" : 0,
					"id" : "obj-4",
					"ignoreclick" : 1,
					"maxclass" : "comment",
					"numinlets" : 1,
					"numoutlets" : 0,
					"patching_rect" : [ 74.0, 451.0, 78.0, 19.0 ],
					"presentation" : 0,
					"presentation_rect" : [ 0.0, 0.0, 0.0, 0.0 ],
					"text" : "Audio On/Off",
					"textcolor" : [ 0.0, 0.0, 0.0, 1.0 ],
					"textjustification" : 0,
					"underline" : 0
				}

			}
, 			{
				"box" : 				{
					"background" : 0,
					"bgcolor" : [ 1.0, 1.0, 1.0, 0.0 ],
					"bubble" : 0,
					"bubblepoint" : 0.5,
					"bubbleside" : 1,
					"bubbletextmargin" : 5,
					"fontface" : 0,
					"fontname" : "Arial",
					"fontsize" : 11.595187,
					"frgb" : 0.0,
					"hidden" : 0,
					"id" : "obj-5",
					"ignoreclick" : 1,
					"maxclass" : "comment",
					"numinlets" : 1,
					"numoutlets" : 0,
					"patching_rect" : [ 200.0, 418.0, 227.0, 19.0 ],
					"presentation" : 0,
					"presentation_rect" : [ 0.0, 0.0, 0.0, 0.0 ],
					"text" : "Double-click to see the buffered waveform",
					"textcolor" : [ 0.0, 0.0, 0.0, 1.0 ],
					"textjustification" : 0,
					"underline" : 0
				}

			}
, 			{
				"box" : 				{
					"background" : 0,
					"bgcolor" : [ 1.0, 1.0, 1.0, 0.0 ],
					"bubble" : 0,
					"bubblepoint" : 0.5,
					"bubbleside" : 1,
					"bubbletextmargin" : 5,
					"fontface" : 0,
					"fontname" : "Arial",
					"fontsize" : 11.595187,
					"frgb" : 0.0,
					"hidden" : 0,
					"id" : "obj-6",
					"ignoreclick" : 1,
					"linecount" : 2,
					"maxclass" : "comment",
					"numinlets" : 1,
					"numoutlets" : 0,
					"patching_rect" : [ 369.0, 309.0, 133.0, 32.0 ],
					"presentation" : 0,
					"presentation_rect" : [ 0.0, 0.0, 0.0, 0.0 ],
					"text" : "Open this gate~ to hear the buffered waveform",
					"textcolor" : [ 0.0, 0.0, 0.0, 1.0 ],
					"textjustification" : 0,
					"underline" : 0
				}

			}
, 			{
				"box" : 				{
					"background" : 0,
					"bgcolor" : [ 1.0, 1.0, 1.0, 0.0 ],
					"bubble" : 0,
					"bubblepoint" : 0.5,
					"bubbleside" : 1,
					"bubbletextmargin" : 5,
					"fontface" : 0,
					"fontname" : "Arial",
					"fontsize" : 11.595187,
					"frgb" : 0.0,
					"hidden" : 0,
					"id" : "obj-7",
					"ignoreclick" : 1,
					"maxclass" : "comment",
					"numinlets" : 1,
					"numoutlets" : 0,
					"patching_rect" : [ 399.0, 68.0, 99.0, 19.0 ],
					"presentation" : 0,
					"presentation_rect" : [ 0.0, 0.0, 0.0, 0.0 ],
					"text" : "Modulation depth",
					"textcolor" : [ 0.0, 0.0, 0.0, 1.0 ],
					"textjustification" : 0,
					"underline" : 0
				}

			}
, 			{
				"box" : 				{
					"background" : 0,
					"bgcolor" : [ 1.0, 1.0, 1.0, 0.0 ],
					"bubble" : 0,
					"bubblepoint" : 0.5,
					"bubbleside" : 1,
					"bubbletextmargin" : 5,
					"fontface" : 0,
					"fontname" : "Arial",
					"fontsize" : 11.595187,
					"frgb" : 0.0,
					"hidden" : 0,
					"id" : "obj-8",
					"ignoreclick" : 1,
					"maxclass" : "comment",
					"numinlets" : 1,
					"numoutlets" : 0,
					"patching_rect" : [ 477.0, 68.0, 90.0, 19.0 ],
					"presentation" : 0,
					"presentation_rect" : [ 0.0, 0.0, 0.0, 0.0 ],
					"text" : "Modulation rate",
					"textcolor" : [ 0.0, 0.0, 0.0, 1.0 ],
					"textjustification" : 0,
					"underline" : 0
				}

			}
, 			{
				"box" : 				{
					"background" : 0,
					"bgcolor" : [ 1.0, 1.0, 1.0, 0.0 ],
					"bubble" : 0,
					"bubblepoint" : 0.5,
					"bubbleside" : 1,
					"bubbletextmargin" : 5,
					"fontface" : 0,
					"fontname" : "Arial",
					"fontsize" : 11.595187,
					"frgb" : 0.0,
					"hidden" : 0,
					"id" : "obj-9",
					"ignoreclick" : 1,
					"linecount" : 4,
					"maxclass" : "comment",
					"numinlets" : 1,
					"numoutlets" : 0,
					"patching_rect" : [ 10.0, 234.0, 135.0, 58.0 ],
					"presentation" : 0,
					"presentation_rect" : [ 0.0, 0.0, 0.0, 0.0 ],
					"text" : "Cycle~s amplitude determines its scanning range within the lookup table",
					"textcolor" : [ 0.0, 0.0, 0.0, 1.0 ],
					"textjustification" : 0,
					"underline" : 0
				}

			}
, 			{
				"box" : 				{
					"background" : 0,
					"bgcolor" : [ 1.0, 1.0, 1.0, 1.0 ],
					"bordercolor" : [ 0.5, 0.5, 0.5, 1.0 ],
					"checkedcolor" : [ 0.0, 0.0, 0.0, 1.0 ],
					"hidden" : 0,
					"id" : "obj-11",
					"ignoreclick" : 0,
					"maxclass" : "toggle",
					"numinlets" : 1,
					"numoutlets" : 1,
					"outlettype" : [ "int" ],
					"parameter_enable" : 0,
					"patching_rect" : [ 469.0, 344.0, 20.0, 20.0 ],
					"presentation" : 0,
					"presentation_rect" : [ 0.0, 0.0, 0.0, 0.0 ]
				}

			}
, 			{
				"box" : 				{
					"background" : 0,
					"bgcolor" : [ 1.0, 1.0, 1.0, 1.0 ],
					"color" : [ 0.8, 0.84, 0.71, 1.0 ],
					"fontface" : 0,
					"fontname" : "Arial",
					"fontsize" : 11.595187,
					"hidden" : 0,
					"id" : "obj-12",
					"ignoreclick" : 0,
					"maxclass" : "newobj",
					"numinlets" : 2,
					"numoutlets" : 1,
					"outlettype" : [ "signal" ],
					"patching_rect" : [ 469.0, 369.0, 47.0, 19.0 ],
					"presentation" : 0,
					"presentation_rect" : [ 0.0, 0.0, 0.0, 0.0 ],
					"text" : "gate~",
					"textcolor" : [ 0.0, 0.0, 0.0, 1.0 ],
					"textjustification" : 0
				}

			}
, 			{
				"box" : 				{
					"background" : 0,
					"bgcolor" : [ 0.866667, 0.866667, 0.866667, 1.0 ],
					"bordercolor" : [ 0.5, 0.5, 0.5, 1.0 ],
					"cantchange" : 0,
					"fontface" : 0,
					"fontname" : "Arial",
					"fontsize" : 11.595187,
					"hbgcolor" : [ 0.0, 0.0, 0.0, 1.0 ],
					"hidden" : 0,
					"htextcolor" : [ 0.870588, 0.870588, 0.870588, 1.0 ],
					"htricolor" : [ 0.87, 0.82, 0.24, 1.0 ],
					"id" : "obj-13",
					"ignoreclick" : 0,
					"maxclass" : "flonum",
					"maximum" : "<none>",
					"minimum" : "<none>",
					"mouseup" : 0,
					"numdecimalplaces" : 0,
					"numinlets" : 1,
					"numoutlets" : 2,
					"outlettype" : [ "float", "bang" ],
					"outputonclick" : 0,
					"parameter_enable" : 0,
					"patching_rect" : [ 497.0, 260.0, 59.0, 19.0 ],
					"presentation" : 0,
					"presentation_rect" : [ 0.0, 0.0, 0.0, 0.0 ],
					"textcolor" : [ 0.0, 0.0, 0.0, 1.0 ],
					"triangle" : 1,
					"tricolor" : [ 0.75, 0.75, 0.75, 1.0 ],
					"triscale" : 0.9
				}

			}
, 			{
				"box" : 				{
					"background" : 0,
					"bgcolor" : [ 0.866667, 0.866667, 0.866667, 1.0 ],
					"bordercolor" : [ 0.5, 0.5, 0.5, 1.0 ],
					"cantchange" : 0,
					"fontface" : 0,
					"fontname" : "Arial",
					"fontsize" : 11.595187,
					"hbgcolor" : [ 0.0, 0.0, 0.0, 1.0 ],
					"hidden" : 0,
					"htextcolor" : [ 0.870588, 0.870588, 0.870588, 1.0 ],
					"htricolor" : [ 0.87, 0.82, 0.24, 1.0 ],
					"id" : "obj-14",
					"ignoreclick" : 0,
					"maxclass" : "flonum",
					"maximum" : "<none>",
					"minimum" : "<none>",
					"mouseup" : 0,
					"numdecimalplaces" : 0,
					"numinlets" : 1,
					"numoutlets" : 2,
					"outlettype" : [ "float", "bang" ],
					"outputonclick" : 0,
					"parameter_enable" : 0,
					"patching_rect" : [ 530.0, 316.0, 68.0, 19.0 ],
					"presentation" : 0,
					"presentation_rect" : [ 0.0, 0.0, 0.0, 0.0 ],
					"textcolor" : [ 0.0, 0.0, 0.0, 1.0 ],
					"triangle" : 1,
					"tricolor" : [ 0.75, 0.75, 0.75, 1.0 ],
					"triscale" : 0.9
				}

			}
, 			{
				"box" : 				{
					"background" : 0,
					"bgcolor" : [ 1.0, 1.0, 1.0, 1.0 ],
					"color" : [ 0.8, 0.84, 0.71, 1.0 ],
					"fontface" : 0,
					"fontname" : "Arial",
					"fontsize" : 11.595187,
					"hidden" : 0,
					"id" : "obj-15",
					"ignoreclick" : 0,
					"maxclass" : "newobj",
					"numinlets" : 2,
					"numoutlets" : 1,
					"outlettype" : [ "signal" ],
					"patching_rect" : [ 497.0, 341.0, 52.0, 19.0 ],
					"presentation" : 0,
					"presentation_rect" : [ 0.0, 0.0, 0.0, 0.0 ],
					"text" : "*~ 0.2",
					"textcolor" : [ 0.0, 0.0, 0.0, 1.0 ],
					"textjustification" : 0
				}

			}
, 			{
				"box" : 				{
					"background" : 0,
					"bgcolor" : [ 1.0, 1.0, 1.0, 0.0 ],
					"bubble" : 0,
					"bubblepoint" : 0.5,
					"bubbleside" : 1,
					"bubbletextmargin" : 5,
					"fontface" : 0,
					"fontname" : "Arial",
					"fontsize" : 11.595187,
					"frgb" : 0.0,
					"hidden" : 0,
					"id" : "obj-16",
					"ignoreclick" : 1,
					"linecount" : 3,
					"maxclass" : "comment",
					"numinlets" : 1,
					"numoutlets" : 0,
					"patching_rect" : [ 15.0, 152.0, 123.0, 45.0 ],
					"presentation" : 0,
					"presentation_rect" : [ 0.0, 0.0, 0.0, 0.0 ],
					"text" : "Choose a method for affecting the range of table lookup",
					"textcolor" : [ 0.0, 0.0, 0.0, 1.0 ],
					"textjustification" : 0,
					"underline" : 0
				}

			}
, 			{
				"box" : 				{
					"align" : 0,
					"arrow" : 1,
					"arrowbgcolor" : [ 0.86, 0.86, 0.86, 1.0 ],
					"arrowcolor" : [ 0.22, 0.22, 0.22, 1.0 ],
					"arrowframe" : 1,
					"arrowlink" : 1,
					"autopopulate" : 0,
					"background" : 0,
					"bgcolor" : [ 1.0, 1.0, 1.0, 1.0 ],
					"bgcolor2" : [ 1.0, 1.0, 1.0, 1.0 ],
					"depth" : 0,
					"discolor" : [ 0.43, 0.43, 0.43, 1.0 ],
					"fontface" : 0,
					"fontname" : "Arial",
					"fontsize" : 11.595187,
					"framecolor" : [ 0.5, 0.5, 0.5, 1.0 ],
					"hidden" : 0,
					"hltcolor" : [ 0.92, 0.92, 0.92, 1.0 ],
					"id" : "obj-17",
					"ignoreclick" : 0,
					"items" : [ "Table", "Lookup", "Off", ",", "Set", "range", "by", "hand", ",", "Control", "range", "by", "envelope", ",", "Modulate", "range", "by", "a", "wave" ],
					"labelclick" : 0,
					"maxclass" : "umenu",
					"menumode" : 0,
					"numinlets" : 1,
					"numoutlets" : 3,
					"outlettype" : [ "int", "", "" ],
					"parameter_enable" : 0,
					"patching_rect" : [ 15.0, 200.0, 168.0, 19.0 ],
					"pattrmode" : 0,
					"prefix" : "",
					"prefix_mode" : 0,
					"presentation" : 0,
					"presentation_rect" : [ 0.0, 0.0, 0.0, 0.0 ],
					"rounded" : 8,
					"showdotfiles" : 0,
					"textcolor" : [ 0.15, 0.15, 0.15, 1.0 ],
					"textcolor2" : [ 0.15, 0.15, 0.15, 1.0 ],
					"togcolor" : [ 0.55, 0.55, 0.55, 1.0 ],
					"truncate" : 1,
					"underline" : 0
				}

			}
, 			{
				"box" : 				{
					"background" : 0,
					"bgcolor" : [ 1.0, 1.0, 1.0, 0.0 ],
					"bubble" : 0,
					"bubblepoint" : 0.5,
					"bubbleside" : 1,
					"bubbletextmargin" : 5,
					"fontface" : 0,
					"fontname" : "Arial",
					"fontsize" : 11.595187,
					"frgb" : 0.0,
					"hidden" : 0,
					"id" : "obj-18",
					"ignoreclick" : 1,
					"maxclass" : "comment",
					"numinlets" : 1,
					"numoutlets" : 0,
					"patching_rect" : [ 393.0, 45.0, 114.0, 19.0 ],
					"presentation" : 0,
					"presentation_rect" : [ 0.0, 0.0, 0.0, 0.0 ],
					"text" : "By modulating wave",
					"textcolor" : [ 0.0, 0.0, 0.0, 1.0 ],
					"textjustification" : 0,
					"underline" : 0
				}

			}
, 			{
				"box" : 				{
					"background" : 0,
					"bgcolor" : [ 1.0, 1.0, 1.0, 0.0 ],
					"bubble" : 0,
					"bubblepoint" : 0.5,
					"bubbleside" : 1,
					"bubbletextmargin" : 5,
					"fontface" : 0,
					"fontname" : "Arial",
					"fontsize" : 11.595187,
					"frgb" : 0.0,
					"hidden" : 0,
					"id" : "obj-19",
					"ignoreclick" : 1,
					"maxclass" : "comment",
					"numinlets" : 1,
					"numoutlets" : 0,
					"patching_rect" : [ 215.0, 45.0, 74.0, 19.0 ],
					"presentation" : 0,
					"presentation_rect" : [ 0.0, 0.0, 0.0, 0.0 ],
					"text" : "By envelope",
					"textcolor" : [ 0.0, 0.0, 0.0, 1.0 ],
					"textjustification" : 0,
					"underline" : 0
				}

			}
, 			{
				"box" : 				{
					"background" : 0,
					"bgcolor" : [ 1.0, 1.0, 1.0, 0.0 ],
					"bubble" : 0,
					"bubblepoint" : 0.5,
					"bubbleside" : 1,
					"bubbletextmargin" : 5,
					"fontface" : 0,
					"fontname" : "Arial",
					"fontsize" : 11.595187,
					"frgb" : 0.0,
					"hidden" : 0,
					"id" : "obj-20",
					"ignoreclick" : 1,
					"maxclass" : "comment",
					"numinlets" : 1,
					"numoutlets" : 0,
					"patching_rect" : [ 142.0, 44.0, 53.0, 19.0 ],
					"presentation" : 0,
					"presentation_rect" : [ 0.0, 0.0, 0.0, 0.0 ],
					"text" : "By hand",
					"textcolor" : [ 0.0, 0.0, 0.0, 1.0 ],
					"textjustification" : 0,
					"underline" : 0
				}

			}
, 			{
				"box" : 				{
					"background" : 0,
					"bgcolor" : [ 1.0, 1.0, 1.0, 0.0 ],
					"bubble" : 0,
					"bubblepoint" : 0.5,
					"bubbleside" : 1,
					"bubbletextmargin" : 5,
					"fontface" : 0,
					"fontname" : "Arial",
					"fontsize" : 11.595187,
					"frgb" : 0.0,
					"hidden" : 0,
					"id" : "obj-21",
					"ignoreclick" : 1,
					"maxclass" : "comment",
					"numinlets" : 1,
					"numoutlets" : 0,
					"patching_rect" : [ 114.0, 19.0, 430.0, 19.0 ],
					"presentation" : 0,
					"presentation_rect" : [ 0.0, 0.0, 0.0, 0.0 ],
					"text" : "Change cycle~s amplitude to determine its scanning range within the lookup table",
					"textcolor" : [ 0.0, 0.0, 0.0, 1.0 ],
					"textjustification" : 0,
					"underline" : 0
				}

			}
, 			{
				"box" : 				{
					"background" : 0,
					"bgcolor" : [ 1.0, 1.0, 1.0, 1.0 ],
					"color" : [ 0.8, 0.84, 0.71, 1.0 ],
					"fontface" : 0,
					"fontname" : "Arial",
					"fontsize" : 11.595187,
					"hidden" : 0,
					"id" : "obj-22",
					"ignoreclick" : 0,
					"maxclass" : "newobj",
					"numinlets" : 2,
					"numoutlets" : 2,
					"outlettype" : [ "signal", "bang" ],
					"patching_rect" : [ 267.0, 322.0, 35.0, 19.0 ],
					"presentation" : 0,
					"presentation_rect" : [ 0.0, 0.0, 0.0, 0.0 ],
					"text" : "line~",
					"textcolor" : [ 0.0, 0.0, 0.0, 1.0 ],
					"textjustification" : 0
				}

			}
, 			{
				"box" : 				{
					"background" : 0,
					"bgcolor" : [ 0.867, 0.867, 0.867, 1.0 ],
					"bgcolor2" : [ 0.867, 0.867, 0.867, 1.0 ],
					"fontface" : 0,
					"fontname" : "Arial",
					"fontsize" : 11.595187,
					"gradient" : 0,
					"hidden" : 0,
					"id" : "obj-23",
					"ignoreclick" : 0,
					"maxclass" : "message",
					"numinlets" : 2,
					"numoutlets" : 1,
					"outlettype" : [ "" ],
					"patching_rect" : [ 223.0, 322.0, 32.5, 17.0 ],
					"presentation" : 0,
					"presentation_rect" : [ 0.0, 0.0, 0.0, 0.0 ],
					"text" : "50",
					"textcolor" : [ 0.0, 0.0, 0.0, 1.0 ],
					"textjustification" : 0
				}

			}
, 			{
				"box" : 				{
					"background" : 0,
					"bgcolor" : [ 0.866667, 0.866667, 0.866667, 1.0 ],
					"bordercolor" : [ 0.5, 0.5, 0.5, 1.0 ],
					"cantchange" : 0,
					"fontface" : 0,
					"fontname" : "Arial",
					"fontsize" : 11.595187,
					"hbgcolor" : [ 0.0, 0.0, 0.0, 1.0 ],
					"hidden" : 0,
					"htextcolor" : [ 0.870588, 0.870588, 0.870588, 1.0 ],
					"htricolor" : [ 0.87, 0.82, 0.24, 1.0 ],
					"id" : "obj-24",
					"ignoreclick" : 0,
					"maxclass" : "flonum",
					"maximum" : 1.0,
					"minimum" : 0.0,
					"mouseup" : 0,
					"numdecimalplaces" : 0,
					"numinlets" : 1,
					"numoutlets" : 2,
					"outlettype" : [ "float", "bang" ],
					"outputonclick" : 0,
					"parameter_enable" : 0,
					"patching_rect" : [ 195.0, 290.0, 59.0, 19.0 ],
					"presentation" : 0,
					"presentation_rect" : [ 0.0, 0.0, 0.0, 0.0 ],
					"textcolor" : [ 0.0, 0.0, 0.0, 1.0 ],
					"triangle" : 1,
					"tricolor" : [ 0.75, 0.75, 0.75, 1.0 ],
					"triscale" : 0.9
				}

			}
, 			{
				"box" : 				{
					"background" : 0,
					"bgcolor" : [ 1.0, 1.0, 1.0, 0.0 ],
					"bubble" : 0,
					"bubblepoint" : 0.5,
					"bubbleside" : 1,
					"bubbletextmargin" : 5,
					"fontface" : 0,
					"fontname" : "Arial",
					"fontsize" : 11.595187,
					"frgb" : 0.0,
					"hidden" : 0,
					"id" : "obj-25",
					"ignoreclick" : 1,
					"maxclass" : "comment",
					"numinlets" : 1,
					"numoutlets" : 0,
					"patching_rect" : [ 256.0, 290.0, 62.0, 19.0 ],
					"presentation" : 0,
					"presentation_rect" : [ 0.0, 0.0, 0.0, 0.0 ],
					"text" : "Amplitude",
					"textcolor" : [ 0.0, 0.0, 0.0, 1.0 ],
					"textjustification" : 0,
					"underline" : 0
				}

			}
, 			{
				"box" : 				{
					"background" : 0,
					"bgcolor" : [ 1.0, 1.0, 1.0, 0.0 ],
					"bubble" : 0,
					"bubblepoint" : 0.5,
					"bubbleside" : 1,
					"bubbletextmargin" : 5,
					"fontface" : 0,
					"fontname" : "Arial",
					"fontsize" : 11.595187,
					"frgb" : 0.0,
					"hidden" : 0,
					"id" : "obj-26",
					"ignoreclick" : 1,
					"maxclass" : "comment",
					"numinlets" : 1,
					"numoutlets" : 0,
					"patching_rect" : [ 5.0, 297.0, 65.0, 19.0 ],
					"presentation" : 0,
					"presentation_rect" : [ 0.0, 0.0, 0.0, 0.0 ],
					"text" : "Frequency",
					"textcolor" : [ 0.0, 0.0, 0.0, 1.0 ],
					"textjustification" : 0,
					"underline" : 0
				}

			}
, 			{
				"box" : 				{
					"background" : 0,
					"bgcolor" : [ 1.0, 1.0, 1.0, 1.0 ],
					"color" : [ 0.8, 0.84, 0.71, 1.0 ],
					"fontface" : 0,
					"fontname" : "Arial",
					"fontsize" : 11.595187,
					"hidden" : 0,
					"id" : "obj-27",
					"ignoreclick" : 0,
					"maxclass" : "newobj",
					"numinlets" : 0,
					"numoutlets" : 1,
					"outlettype" : [ "" ],
					"patching_rect" : [ 5.0, 319.0, 41.0, 19.0 ],
					"presentation" : 0,
					"presentation_rect" : [ 0.0, 0.0, 0.0, 0.0 ],
					"text" : "r Freq",
					"textcolor" : [ 0.0, 0.0, 0.0, 1.0 ],
					"textjustification" : 0
				}

			}
, 			{
				"box" : 				{
					"background" : 0,
					"bgcolor" : [ 1.0, 1.0, 1.0, 1.0 ],
					"color" : [ 0.8, 0.84, 0.71, 1.0 ],
					"fontface" : 0,
					"fontname" : "Arial",
					"fontsize" : 11.595187,
					"hidden" : 0,
					"id" : "obj-28",
					"ignoreclick" : 0,
					"maxclass" : "newobj",
					"numinlets" : 2,
					"numoutlets" : 2,
					"outlettype" : [ "signal", "bang" ],
					"patching_rect" : [ 408.0, 162.0, 47.0, 19.0 ],
					"presentation" : 0,
					"presentation_rect" : [ 0.0, 0.0, 0.0, 0.0 ],
					"text" : "line~",
					"textcolor" : [ 0.0, 0.0, 0.0, 1.0 ],
					"textjustification" : 0
				}

			}
, 			{
				"box" : 				{
					"background" : 0,
					"bgcolor" : [ 0.867, 0.867, 0.867, 1.0 ],
					"bgcolor2" : [ 0.867, 0.867, 0.867, 1.0 ],
					"fontface" : 0,
					"fontname" : "Arial",
					"fontsize" : 11.595187,
					"gradient" : 0,
					"hidden" : 0,
					"id" : "obj-29",
					"ignoreclick" : 0,
					"maxclass" : "message",
					"numinlets" : 2,
					"numoutlets" : 1,
					"outlettype" : [ "" ],
					"patching_rect" : [ 436.0, 124.0, 32.5, 17.0 ],
					"presentation" : 0,
					"presentation_rect" : [ 0.0, 0.0, 0.0, 0.0 ],
					"text" : "50",
					"textcolor" : [ 0.0, 0.0, 0.0, 1.0 ],
					"textjustification" : 0
				}

			}
, 			{
				"box" : 				{
					"background" : 0,
					"bgcolor" : [ 0.866667, 0.866667, 0.866667, 1.0 ],
					"bordercolor" : [ 0.5, 0.5, 0.5, 1.0 ],
					"cantchange" : 0,
					"fontface" : 0,
					"fontname" : "Arial",
					"fontsize" : 11.595187,
					"hbgcolor" : [ 0.0, 0.0, 0.0, 1.0 ],
					"hidden" : 0,
					"htextcolor" : [ 0.870588, 0.870588, 0.870588, 1.0 ],
					"htricolor" : [ 0.87, 0.82, 0.24, 1.0 ],
					"id" : "obj-30",
					"ignoreclick" : 0,
					"maxclass" : "flonum",
					"maximum" : 1.0,
					"minimum" : 0.0,
					"mouseup" : 0,
					"numdecimalplaces" : 0,
					"numinlets" : 1,
					"numoutlets" : 2,
					"outlettype" : [ "float", "bang" ],
					"outputonclick" : 0,
					"parameter_enable" : 0,
					"patching_rect" : [ 408.0, 97.0, 59.0, 19.0 ],
					"presentation" : 0,
					"presentation_rect" : [ 0.0, 0.0, 0.0, 0.0 ],
					"textcolor" : [ 0.0, 0.0, 0.0, 1.0 ],
					"triangle" : 1,
					"tricolor" : [ 0.75, 0.75, 0.75, 1.0 ],
					"triscale" : 0.9
				}

			}
, 			{
				"box" : 				{
					"background" : 0,
					"bgcolor" : [ 1.0, 1.0, 1.0, 1.0 ],
					"color" : [ 0.8, 0.84, 0.71, 1.0 ],
					"fontface" : 0,
					"fontname" : "Arial",
					"fontsize" : 11.595187,
					"hidden" : 0,
					"id" : "obj-31",
					"ignoreclick" : 0,
					"maxclass" : "newobj",
					"numinlets" : 2,
					"numoutlets" : 1,
					"outlettype" : [ "signal" ],
					"patching_rect" : [ 349.0, 192.0, 32.5, 19.0 ],
					"presentation" : 0,
					"presentation_rect" : [ 0.0, 0.0, 0.0, 0.0 ],
					"text" : "*~",
					"textcolor" : [ 0.0, 0.0, 0.0, 1.0 ],
					"textjustification" : 0
				}

			}
, 			{
				"box" : 				{
					"background" : 0,
					"bgcolor" : [ 1.0, 1.0, 1.0, 1.0 ],
					"color" : [ 0.8, 0.84, 0.71, 1.0 ],
					"fontface" : 0,
					"fontname" : "Arial",
					"fontsize" : 11.595187,
					"hidden" : 0,
					"id" : "obj-32",
					"ignoreclick" : 0,
					"maxclass" : "newobj",
					"numinlets" : 2,
					"numoutlets" : 1,
					"outlettype" : [ "signal" ],
					"patching_rect" : [ 349.0, 139.0, 43.0, 19.0 ],
					"presentation" : 0,
					"presentation_rect" : [ 0.0, 0.0, 0.0, 0.0 ],
					"text" : "+~ 0.5",
					"textcolor" : [ 0.0, 0.0, 0.0, 1.0 ],
					"textjustification" : 0
				}

			}
, 			{
				"box" : 				{
					"background" : 0,
					"bgcolor" : [ 0.866667, 0.866667, 0.866667, 1.0 ],
					"bordercolor" : [ 0.5, 0.5, 0.5, 1.0 ],
					"cantchange" : 0,
					"fontface" : 0,
					"fontname" : "Arial",
					"fontsize" : 11.595187,
					"hbgcolor" : [ 0.0, 0.0, 0.0, 1.0 ],
					"hidden" : 0,
					"htextcolor" : [ 0.870588, 0.870588, 0.870588, 1.0 ],
					"htricolor" : [ 0.87, 0.82, 0.24, 1.0 ],
					"id" : "obj-33",
					"ignoreclick" : 0,
					"maxclass" : "flonum",
					"maximum" : "<none>",
					"minimum" : "<none>",
					"mouseup" : 0,
					"numdecimalplaces" : 0,
					"numinlets" : 1,
					"numoutlets" : 2,
					"outlettype" : [ "float", "bang" ],
					"outputonclick" : 0,
					"parameter_enable" : 0,
					"patching_rect" : [ 479.0, 97.0, 59.0, 19.0 ],
					"presentation" : 0,
					"presentation_rect" : [ 0.0, 0.0, 0.0, 0.0 ],
					"textcolor" : [ 0.0, 0.0, 0.0, 1.0 ],
					"triangle" : 1,
					"tricolor" : [ 0.75, 0.75, 0.75, 1.0 ],
					"triscale" : 0.9
				}

			}
, 			{
				"box" : 				{
					"background" : 0,
					"bgcolor" : [ 0.866667, 0.866667, 0.866667, 1.0 ],
					"bordercolor" : [ 0.5, 0.5, 0.5, 1.0 ],
					"cantchange" : 0,
					"fontface" : 0,
					"fontname" : "Arial",
					"fontsize" : 11.595187,
					"format" : 0,
					"hbgcolor" : [ 0.0, 0.0, 0.0, 1.0 ],
					"hidden" : 0,
					"htextcolor" : [ 0.870588, 0.870588, 0.870588, 1.0 ],
					"htricolor" : [ 0.87, 0.82, 0.24, 1.0 ],
					"id" : "obj-34",
					"ignoreclick" : 0,
					"maxclass" : "number",
					"maximum" : "<none>",
					"minimum" : "<none>",
					"mouseup" : 0,
					"numinlets" : 1,
					"numoutlets" : 2,
					"outlettype" : [ "int", "bang" ],
					"outputonclick" : 0,
					"parameter_enable" : 0,
					"patching_rect" : [ 235.0, 68.0, 41.0, 19.0 ],
					"presentation" : 0,
					"presentation_rect" : [ 0.0, 0.0, 0.0, 0.0 ],
					"textcolor" : [ 0.0, 0.0, 0.0, 1.0 ],
					"triangle" : 1,
					"tricolor" : [ 0.75, 0.75, 0.75, 1.0 ],
					"triscale" : 0.9
				}

			}
, 			{
				"box" : 				{
					"background" : 0,
					"bgcolor" : [ 0.867, 0.867, 0.867, 1.0 ],
					"bgcolor2" : [ 0.867, 0.867, 0.867, 1.0 ],
					"fontface" : 0,
					"fontname" : "Arial",
					"fontsize" : 11.595187,
					"gradient" : 0,
					"hidden" : 0,
					"id" : "obj-35",
					"ignoreclick" : 0,
					"maxclass" : "message",
					"numinlets" : 2,
					"numoutlets" : 1,
					"outlettype" : [ "" ],
					"patching_rect" : [ 235.0, 97.0, 80.0, 17.0 ],
					"presentation" : 0,
					"presentation_rect" : [ 0.0, 0.0, 0.0, 0.0 ],
					"text" : "setdomain $1",
					"textcolor" : [ 0.0, 0.0, 0.0, 1.0 ],
					"textjustification" : 0
				}

			}
, 			{
				"box" : 				{
					"background" : 0,
					"bgcolor" : [ 0.91328, 0.91328, 0.91328, 0.75 ],
					"blinkcolor" : [ 1.0, 0.890196, 0.090196, 1.0 ],
					"fgcolor" : [ 1.0, 1.0, 1.0, 1.0 ],
					"hidden" : 0,
					"id" : "obj-36",
					"ignoreclick" : 0,
					"maxclass" : "button",
					"numinlets" : 1,
					"numoutlets" : 1,
					"outlettype" : [ "bang" ],
					"outlinecolor" : [ 0.71328, 0.71328, 0.71328, 1.0 ],
					"patching_rect" : [ 215.0, 68.0, 20.0, 20.0 ],
					"presentation" : 0,
					"presentation_rect" : [ 0.0, 0.0, 0.0, 0.0 ]
				}

			}
, 			{
				"box" : 				{
					"background" : 0,
					"bgcolor" : [ 1.0, 1.0, 1.0, 1.0 ],
					"color" : [ 0.8, 0.84, 0.71, 1.0 ],
					"fontface" : 0,
					"fontname" : "Arial",
					"fontsize" : 11.595187,
					"hidden" : 0,
					"id" : "obj-37",
					"ignoreclick" : 0,
					"maxclass" : "newobj",
					"numinlets" : 2,
					"numoutlets" : 2,
					"outlettype" : [ "signal", "bang" ],
					"patching_rect" : [ 242.0, 209.0, 35.0, 19.0 ],
					"presentation" : 0,
					"presentation_rect" : [ 0.0, 0.0, 0.0, 0.0 ],
					"text" : "line~",
					"textcolor" : [ 0.0, 0.0, 0.0, 1.0 ],
					"textjustification" : 0
				}

			}
, 			{
				"box" : 				{
					"addpoints" : [ 0.0, 0.5, 0, 0.51, 1.0, 0, 13.6, 0.125, 0, 40.799999, 0.9, 0, 68.0, 0.0, 0 ],
					"autosustain" : 0,
					"background" : 0,
					"bgcolor" : [ 0.8, 0.8, 0.8, 1.0 ],
					"bordercolor" : [ 0.0, 0.0, 0.0, 1.0 ],
					"clickadd" : 1,
					"clickmove" : 1,
					"clicksustain" : 1,
					"cursorcolor" : [ 0.3, 0.3, 0.3, 0.5 ],
					"domain" : 68.0,
					"grid" : 0,
					"gridcolor" : [ 0.5, 0.5, 0.5, 0.5 ],
					"gridstep_x" : 100.0,
					"gridstep_y" : 0.1,
					"hidden" : 0,
					"id" : "obj-38",
					"ignoreclick" : 0,
					"legend" : 1,
					"linecolor" : [ 0.333333, 0.333333, 0.333333, 1.0 ],
					"linethickness" : 1.0,
					"maxclass" : "function",
					"mode" : 0,
					"mousemode" : 0,
					"mousereport" : 0,
					"numinlets" : 1,
					"numoutlets" : 4,
					"outlettype" : [ "float", "", "", "bang" ],
					"outputmode" : 0,
					"parameter_enable" : 0,
					"patching_rect" : [ 215.0, 127.0, 100.0, 64.0 ],
					"pointcolor" : [ 0.321569, 0.321569, 0.321569, 1.0 ],
					"presentation" : 0,
					"presentation_rect" : [ 0.0, 0.0, 0.0, 0.0 ],
					"range" : [ 0.0, 1.0 ],
					"snap2grid" : 0,
					"sustaincolor" : [ 1.0, 1.0, 1.0, 1.0 ],
					"textcolor" : [ 0.0, 0.0, 0.0, 1.0 ]
				}

			}
, 			{
				"box" : 				{
					"background" : 0,
					"bgcolor" : [ 0.866667, 0.866667, 0.866667, 1.0 ],
					"bordercolor" : [ 0.5, 0.5, 0.5, 1.0 ],
					"cantchange" : 0,
					"fontface" : 0,
					"fontname" : "Arial",
					"fontsize" : 11.595187,
					"hbgcolor" : [ 0.0, 0.0, 0.0, 1.0 ],
					"hidden" : 0,
					"htextcolor" : [ 0.870588, 0.870588, 0.870588, 1.0 ],
					"htricolor" : [ 0.87, 0.82, 0.24, 1.0 ],
					"id" : "obj-39",
					"ignoreclick" : 0,
					"maxclass" : "flonum",
					"maximum" : 1.0,
					"minimum" : 0.0,
					"mouseup" : 0,
					"numdecimalplaces" : 0,
					"numinlets" : 1,
					"numoutlets" : 2,
					"outlettype" : [ "float", "bang" ],
					"outputonclick" : 0,
					"parameter_enable" : 0,
					"patching_rect" : [ 142.0, 68.0, 59.0, 19.0 ],
					"presentation" : 0,
					"presentation_rect" : [ 0.0, 0.0, 0.0, 0.0 ],
					"textcolor" : [ 0.0, 0.0, 0.0, 1.0 ],
					"triangle" : 1,
					"tricolor" : [ 0.75, 0.75, 0.75, 1.0 ],
					"triscale" : 0.9
				}

			}
, 			{
				"box" : 				{
					"background" : 0,
					"bgcolor" : [ 0.867, 0.867, 0.867, 1.0 ],
					"bgcolor2" : [ 0.867, 0.867, 0.867, 1.0 ],
					"fontface" : 0,
					"fontname" : "Arial",
					"fontsize" : 11.595187,
					"gradient" : 0,
					"hidden" : 0,
					"id" : "obj-40",
					"ignoreclick" : 0,
					"maxclass" : "message",
					"numinlets" : 2,
					"numoutlets" : 1,
					"outlettype" : [ "" ],
					"patching_rect" : [ 170.0, 97.0, 32.5, 17.0 ],
					"presentation" : 0,
					"presentation_rect" : [ 0.0, 0.0, 0.0, 0.0 ],
					"text" : "100",
					"textcolor" : [ 0.0, 0.0, 0.0, 1.0 ],
					"textjustification" : 0
				}

			}
, 			{
				"box" : 				{
					"background" : 0,
					"bgcolor" : [ 1.0, 1.0, 1.0, 1.0 ],
					"color" : [ 0.8, 0.84, 0.71, 1.0 ],
					"fontface" : 0,
					"fontname" : "Arial",
					"fontsize" : 11.595187,
					"hidden" : 0,
					"id" : "obj-41",
					"ignoreclick" : 0,
					"maxclass" : "newobj",
					"numinlets" : 2,
					"numoutlets" : 2,
					"outlettype" : [ "signal", "bang" ],
					"patching_rect" : [ 142.0, 127.0, 35.0, 19.0 ],
					"presentation" : 0,
					"presentation_rect" : [ 0.0, 0.0, 0.0, 0.0 ],
					"text" : "line~",
					"textcolor" : [ 0.0, 0.0, 0.0, 1.0 ],
					"textjustification" : 0
				}

			}
, 			{
				"box" : 				{
					"background" : 0,
					"bgcolor" : [ 1.0, 1.0, 1.0, 1.0 ],
					"color" : [ 0.8, 0.84, 0.71, 1.0 ],
					"fontface" : 0,
					"fontname" : "Arial",
					"fontsize" : 11.595187,
					"hidden" : 0,
					"id" : "obj-42",
					"ignoreclick" : 0,
					"maxclass" : "newobj",
					"numinlets" : 4,
					"numoutlets" : 1,
					"outlettype" : [ "signal" ],
					"patching_rect" : [ 159.0, 242.0, 68.0, 19.0 ],
					"presentation" : 0,
					"presentation_rect" : [ 0.0, 0.0, 0.0, 0.0 ],
					"text" : "selector~ 3",
					"textcolor" : [ 0.0, 0.0, 0.0, 1.0 ],
					"textjustification" : 0
				}

			}
, 			{
				"box" : 				{
					"background" : 0,
					"bgcolor" : [ 1.0, 1.0, 1.0, 1.0 ],
					"color" : [ 0.8, 0.84, 0.71, 1.0 ],
					"fontface" : 0,
					"fontname" : "Arial",
					"fontsize" : 11.595187,
					"hidden" : 0,
					"id" : "obj-43",
					"ignoreclick" : 0,
					"maxclass" : "newobj",
					"numinlets" : 2,
					"numoutlets" : 1,
					"outlettype" : [ "signal" ],
					"patching_rect" : [ 82.0, 310.0, 32.5, 19.0 ],
					"presentation" : 0,
					"presentation_rect" : [ 0.0, 0.0, 0.0, 0.0 ],
					"text" : "*~",
					"textcolor" : [ 0.0, 0.0, 0.0, 1.0 ],
					"textjustification" : 0
				}

			}
, 			{
				"box" : 				{
					"background" : 0,
					"bgcolor" : [ 1.0, 1.0, 1.0, 1.0 ],
					"color" : [ 0.8, 0.84, 0.71, 1.0 ],
					"fontface" : 0,
					"fontname" : "Arial",
					"fontsize" : 11.595187,
					"hidden" : 0,
					"id" : "obj-44",
					"ignoreclick" : 0,
					"maxclass" : "newobj",
					"numinlets" : 2,
					"numoutlets" : 1,
					"outlettype" : [ "signal" ],
					"patching_rect" : [ 497.0, 287.0, 119.0, 19.0 ],
					"presentation" : 0,
					"presentation_rect" : [ 0.0, 0.0, 0.0, 0.0 ],
					"text" : "cycle~ 55. wavetable",
					"textcolor" : [ 0.0, 0.0, 0.0, 1.0 ],
					"textjustification" : 0
				}

			}
, 			{
				"box" : 				{
					"background" : 0,
					"bgcolor" : [ 1.0, 1.0, 1.0, 1.0 ],
					"color" : [ 0.8, 0.84, 0.71, 1.0 ],
					"fontface" : 0,
					"fontname" : "Arial",
					"fontsize" : 11.595187,
					"hidden" : 0,
					"id" : "obj-45",
					"ignoreclick" : 0,
					"maxclass" : "newobj",
					"numinlets" : 2,
					"numoutlets" : 1,
					"outlettype" : [ "signal" ],
					"patching_rect" : [ 479.0, 123.0, 44.0, 19.0 ],
					"presentation" : 0,
					"presentation_rect" : [ 0.0, 0.0, 0.0, 0.0 ],
					"text" : "cycle~",
					"textcolor" : [ 0.0, 0.0, 0.0, 1.0 ],
					"textjustification" : 0
				}

			}
, 			{
				"box" : 				{
					"background" : 0,
					"bgcolor" : [ 1.0, 1.0, 1.0, 1.0 ],
					"color" : [ 0.8, 0.84, 0.71, 1.0 ],
					"fontface" : 0,
					"fontname" : "Arial",
					"fontsize" : 11.595187,
					"hidden" : 0,
					"id" : "obj-46",
					"ignoreclick" : 0,
					"maxclass" : "newobj",
					"numinlets" : 2,
					"numoutlets" : 1,
					"outlettype" : [ "signal" ],
					"patching_rect" : [ 349.0, 97.0, 48.0, 19.0 ],
					"presentation" : 0,
					"presentation_rect" : [ 0.0, 0.0, 0.0, 0.0 ],
					"text" : "*~ 0.45",
					"textcolor" : [ 0.0, 0.0, 0.0, 1.0 ],
					"textjustification" : 0
				}

			}
, 			{
				"box" : 				{
					"background" : 0,
					"bgcolor" : [ 0.866667, 0.866667, 0.866667, 1.0 ],
					"bordercolor" : [ 0.5, 0.5, 0.5, 1.0 ],
					"cantchange" : 0,
					"fontface" : 0,
					"fontname" : "Arial",
					"fontsize" : 11.595187,
					"hbgcolor" : [ 0.0, 0.0, 0.0, 1.0 ],
					"hidden" : 0,
					"htextcolor" : [ 0.870588, 0.870588, 0.870588, 1.0 ],
					"htricolor" : [ 0.87, 0.82, 0.24, 1.0 ],
					"id" : "obj-47",
					"ignoreclick" : 0,
					"maxclass" : "flonum",
					"maximum" : "<none>",
					"minimum" : "<none>",
					"mouseup" : 0,
					"numdecimalplaces" : 0,
					"numinlets" : 1,
					"numoutlets" : 2,
					"outlettype" : [ "float", "bang" ],
					"outputonclick" : 0,
					"parameter_enable" : 0,
					"patching_rect" : [ 5.0, 344.0, 59.0, 19.0 ],
					"presentation" : 0,
					"presentation_rect" : [ 0.0, 0.0, 0.0, 0.0 ],
					"textcolor" : [ 0.0, 0.0, 0.0, 1.0 ],
					"triangle" : 1,
					"tricolor" : [ 0.75, 0.75, 0.75, 1.0 ],
					"triscale" : 0.9
				}

			}
, 			{
				"box" : 				{
					"background" : 0,
					"bgcolor" : [ 1.0, 1.0, 1.0, 1.0 ],
					"color" : [ 0.8, 0.84, 0.71, 1.0 ],
					"fontface" : 0,
					"fontname" : "Arial",
					"fontsize" : 11.595187,
					"hidden" : 0,
					"id" : "obj-48",
					"ignoreclick" : 0,
					"maxclass" : "newobj",
					"numinlets" : 1,
					"numoutlets" : 1,
					"outlettype" : [ "signal" ],
					"patching_rect" : [ 5.0, 369.0, 32.0, 19.0 ],
					"presentation" : 0,
					"presentation_rect" : [ 0.0, 0.0, 0.0, 0.0 ],
					"text" : "sig~",
					"textcolor" : [ 0.0, 0.0, 0.0, 1.0 ],
					"textjustification" : 0
				}

			}
, 			{
				"box" : 				{
					"background" : 0,
					"bgcolor" : [ 0.51, 0.51, 0.51, 1.0 ],
					"border" : 0.0,
					"bordercolor" : [ 0.5, 0.5, 0.5, 1.0 ],
					"hidden" : 0,
					"id" : "obj-49",
					"ignoreclick" : 0,
					"local" : 0,
					"maxclass" : "ezdac~",
					"numinlets" : 2,
					"numoutlets" : 0,
					"offgradcolor1" : [ 0.87, 0.87, 0.87, 1.0 ],
					"offgradcolor2" : [ 0.7, 0.7, 0.73, 1.0 ],
					"ongradcolor1" : [ 0.75, 0.79, 0.93, 1.0 ],
					"ongradcolor2" : [ 0.66, 0.66, 0.72, 1.0 ],
					"patching_rect" : [ 82.0, 411.0, 33.0, 33.0 ],
					"presentation" : 0,
					"presentation_rect" : [ 0.0, 0.0, 0.0, 0.0 ]
				}

			}
, 			{
				"box" : 				{
					"background" : 0,
					"bgcolor" : [ 1.0, 1.0, 1.0, 1.0 ],
					"color" : [ 0.8, 0.84, 0.71, 1.0 ],
					"fontface" : 0,
					"fontname" : "Arial",
					"fontsize" : 11.595187,
					"hidden" : 0,
					"id" : "obj-50",
					"ignoreclick" : 0,
					"maxclass" : "newobj",
					"numinlets" : 2,
					"numoutlets" : 1,
					"outlettype" : [ "signal" ],
					"patching_rect" : [ 82.0, 379.0, 32.5, 19.0 ],
					"presentation" : 0,
					"presentation_rect" : [ 0.0, 0.0, 0.0, 0.0 ],
					"text" : "*~",
					"textcolor" : [ 0.0, 0.0, 0.0, 1.0 ],
					"textjustification" : 0
				}

			}
, 			{
				"box" : 				{
					"background" : 0,
					"bgcolor" : [ 1.0, 1.0, 1.0, 1.0 ],
					"color" : [ 0.8, 0.84, 0.71, 1.0 ],
					"fontface" : 0,
					"fontname" : "Arial",
					"fontsize" : 11.595187,
					"hidden" : 0,
					"id" : "obj-51",
					"ignoreclick" : 0,
					"maxclass" : "newobj",
					"numinlets" : 2,
					"numoutlets" : 1,
					"outlettype" : [ "signal" ],
					"patching_rect" : [ 5.0, 394.0, 44.0, 19.0 ],
					"presentation" : 0,
					"presentation_rect" : [ 0.0, 0.0, 0.0, 0.0 ],
					"text" : "cycle~",
					"textcolor" : [ 0.0, 0.0, 0.0, 1.0 ],
					"textjustification" : 0
				}

			}
, 			{
				"box" : 				{
					"background" : 0,
					"bgcolor" : [ 1.0, 1.0, 1.0, 1.0 ],
					"color" : [ 0.8, 0.84, 0.71, 1.0 ],
					"fontface" : 0,
					"fontname" : "Arial",
					"fontsize" : 11.595187,
					"hidden" : 0,
					"id" : "obj-52",
					"ignoreclick" : 0,
					"maxclass" : "newobj",
					"numinlets" : 1,
					"numoutlets" : 2,
					"outlettype" : [ "float", "bang" ],
					"patching_rect" : [ 200.0, 443.0, 102.0, 19.0 ],
					"presentation" : 0,
					"presentation_rect" : [ 0.0, 0.0, 0.0, 0.0 ],
					"text" : "buffer~ wavetable",
					"textcolor" : [ 0.0, 0.0, 0.0, 1.0 ],
					"textjustification" : 0
				}

			}
, 			{
				"box" : 				{
					"background" : 0,
					"bgcolor" : [ 1.0, 1.0, 1.0, 1.0 ],
					"color" : [ 1.0, 0.890196, 0.090196, 1.0 ],
					"fontface" : 0,
					"fontname" : "Arial",
					"fontsize" : 11.595187,
					"hidden" : 0,
					"id" : "obj-53",
					"ignoreclick" : 0,
					"maxclass" : "newobj",
					"numinlets" : 3,
					"numoutlets" : 1,
					"outlettype" : [ "signal" ],
					"patching_rect" : [ 82.0, 343.0, 107.0, 19.0 ],
					"presentation" : 0,
					"presentation_rect" : [ 0.0, 0.0, 0.0, 0.0 ],
					"text" : "lookup~ wavetable",
					"textcolor" : [ 0.0, 0.0, 0.0, 1.0 ],
					"textjustification" : 0
				}

			}
, 			{
				"box" : 				{
					"background" : 0,
					"bgcolor" : [ 1.0, 1.0, 1.0, 0.0 ],
					"bubble" : 0,
					"bubblepoint" : 0.5,
					"bubbleside" : 1,
					"bubbletextmargin" : 5,
					"fontface" : 0,
					"fontname" : "Arial",
					"fontsize" : 11.595187,
					"frgb" : 0.0,
					"hidden" : 0,
					"id" : "obj-54",
					"ignoreclick" : 1,
					"maxclass" : "comment",
					"numinlets" : 1,
					"numoutlets" : 0,
					"patching_rect" : [ 276.0, 68.0, 54.0, 19.0 ],
					"presentation" : 0,
					"presentation_rect" : [ 0.0, 0.0, 0.0, 0.0 ],
					"text" : "Duration",
					"textcolor" : [ 0.0, 0.0, 0.0, 1.0 ],
					"textjustification" : 0,
					"underline" : 0
				}

			}
 ],
		"lines" : [ 			{
				"patchline" : 				{
					"color" : [ 0.0, 0.0, 0.0, 1.0 ],
					"destination" : [ "obj-24", 0 ],
					"disabled" : 0,
					"hidden" : 0,
					"source" : [ "obj-1", 0 ]
				}

			}
, 			{
				"patchline" : 				{
					"color" : [ 0.0, 0.0, 0.0, 1.0 ],
					"destination" : [ "obj-12", 0 ],
					"disabled" : 0,
					"hidden" : 0,
					"source" : [ "obj-11", 0 ]
				}

			}
, 			{
				"patchline" : 				{
					"color" : [ 0.8, 0.8, 0.8, 0.9 ],
					"destination" : [ "obj-57", 0 ],
					"disabled" : 0,
					"hidden" : 0,
					"source" : [ "obj-12", 0 ]
				}

			}
, 			{
				"patchline" : 				{
					"color" : [ 0.0, 0.0, 0.0, 1.0 ],
					"destination" : [ "obj-44", 0 ],
					"disabled" : 0,
					"hidden" : 0,
					"source" : [ "obj-13", 0 ]
				}

			}
, 			{
				"patchline" : 				{
					"color" : [ 0.0, 0.0, 0.0, 1.0 ],
					"destination" : [ "obj-15", 1 ],
					"disabled" : 0,
					"hidden" : 0,
					"source" : [ "obj-14", 0 ]
				}

			}
, 			{
				"patchline" : 				{
					"color" : [ 0.0, 0.0, 0.0, 1.0 ],
					"destination" : [ "obj-12", 1 ],
					"disabled" : 0,
					"hidden" : 0,
					"source" : [ "obj-15", 0 ]
				}

			}
, 			{
				"patchline" : 				{
					"color" : [ 0.0, 0.0, 0.0, 1.0 ],
					"destination" : [ "obj-42", 0 ],
					"disabled" : 0,
					"hidden" : 0,
					"midpoints" : [ 24.5, 226.0, 168.5, 226.0 ],
					"source" : [ "obj-17", 0 ]
				}

			}
, 			{
				"patchline" : 				{
					"color" : [ 0.0, 0.0, 0.0, 1.0 ],
					"destination" : [ "obj-22", 1 ],
					"disabled" : 0,
					"hidden" : 0,
					"source" : [ "obj-23", 0 ]
				}

			}
, 			{
				"patchline" : 				{
					"color" : [ 0.0, 0.0, 0.0, 1.0 ],
					"destination" : [ "obj-22", 0 ],
					"disabled" : 0,
					"hidden" : 0,
					"source" : [ "obj-24", 0 ]
				}

			}
, 			{
				"patchline" : 				{
					"color" : [ 0.0, 0.0, 0.0, 1.0 ],
					"destination" : [ "obj-23", 0 ],
					"disabled" : 0,
					"hidden" : 0,
					"midpoints" : [ 204.5, 315.0, 232.5, 315.0 ],
					"source" : [ "obj-24", 0 ]
				}

			}
, 			{
				"patchline" : 				{
					"color" : [ 0.0, 0.0, 0.0, 1.0 ],
					"destination" : [ "obj-47", 0 ],
					"disabled" : 0,
					"hidden" : 0,
					"source" : [ "obj-27", 0 ]
				}

			}
, 			{
				"patchline" : 				{
					"color" : [ 0.0, 0.0, 0.0, 1.0 ],
					"destination" : [ "obj-31", 1 ],
					"disabled" : 0,
					"hidden" : 0,
					"midpoints" : [ 417.5, 192.0, 381.0, 192.0, 381.0, 189.0, 372.0, 189.0 ],
					"source" : [ "obj-28", 0 ]
				}

			}
, 			{
				"patchline" : 				{
					"color" : [ 0.0, 0.0, 0.0, 1.0 ],
					"destination" : [ "obj-28", 1 ],
					"disabled" : 0,
					"hidden" : 0,
					"source" : [ "obj-29", 0 ]
				}

			}
, 			{
				"patchline" : 				{
					"color" : [ 0.0, 0.0, 0.0, 1.0 ],
					"destination" : [ "obj-2", 0 ],
					"disabled" : 0,
					"hidden" : 0,
					"source" : [ "obj-3", 0 ]
				}

			}
, 			{
				"patchline" : 				{
					"color" : [ 0.0, 0.0, 0.0, 1.0 ],
					"destination" : [ "obj-28", 0 ],
					"disabled" : 0,
					"hidden" : 0,
					"source" : [ "obj-30", 0 ]
				}

			}
, 			{
				"patchline" : 				{
					"color" : [ 0.0, 0.0, 0.0, 1.0 ],
					"destination" : [ "obj-29", 0 ],
					"disabled" : 0,
					"hidden" : 0,
					"midpoints" : [ 417.5, 124.0, 445.5, 124.0 ],
					"source" : [ "obj-30", 0 ]
				}

			}
, 			{
				"patchline" : 				{
					"color" : [ 0.0, 0.0, 0.0, 1.0 ],
					"destination" : [ "obj-42", 3 ],
					"disabled" : 0,
					"hidden" : 0,
					"midpoints" : [ 358.5, 237.0, 217.5, 237.0 ],
					"source" : [ "obj-31", 0 ]
				}

			}
, 			{
				"patchline" : 				{
					"color" : [ 0.0, 0.0, 0.0, 1.0 ],
					"destination" : [ "obj-31", 0 ],
					"disabled" : 0,
					"hidden" : 0,
					"source" : [ "obj-32", 0 ]
				}

			}
, 			{
				"patchline" : 				{
					"color" : [ 0.0, 0.0, 0.0, 1.0 ],
					"destination" : [ "obj-45", 0 ],
					"disabled" : 0,
					"hidden" : 0,
					"source" : [ "obj-33", 0 ]
				}

			}
, 			{
				"patchline" : 				{
					"color" : [ 0.0, 0.0, 0.0, 1.0 ],
					"destination" : [ "obj-35", 0 ],
					"disabled" : 0,
					"hidden" : 0,
					"source" : [ "obj-34", 0 ]
				}

			}
, 			{
				"patchline" : 				{
					"color" : [ 0.0, 0.0, 0.0, 1.0 ],
					"destination" : [ "obj-38", 0 ],
					"disabled" : 0,
					"hidden" : 0,
					"midpoints" : [ 244.5, 124.0, 224.5, 124.0 ],
					"source" : [ "obj-35", 0 ]
				}

			}
, 			{
				"patchline" : 				{
					"color" : [ 0.0, 0.0, 0.0, 1.0 ],
					"destination" : [ "obj-38", 0 ],
					"disabled" : 0,
					"hidden" : 0,
					"source" : [ "obj-36", 0 ]
				}

			}
, 			{
				"patchline" : 				{
					"color" : [ 0.0, 0.0, 0.0, 1.0 ],
					"destination" : [ "obj-42", 2 ],
					"disabled" : 0,
					"hidden" : 0,
					"midpoints" : [ 251.5, 231.0, 201.166672, 231.0 ],
					"source" : [ "obj-37", 0 ]
				}

			}
, 			{
				"patchline" : 				{
					"color" : [ 0.0, 0.0, 0.0, 1.0 ],
					"destination" : [ "obj-37", 0 ],
					"disabled" : 0,
					"hidden" : 0,
					"source" : [ "obj-38", 1 ]
				}

			}
, 			{
				"patchline" : 				{
					"color" : [ 0.0, 0.0, 0.0, 1.0 ],
					"destination" : [ "obj-40", 0 ],
					"disabled" : 0,
					"hidden" : 0,
					"midpoints" : [ 151.5, 93.0, 179.5, 93.0 ],
					"source" : [ "obj-39", 0 ]
				}

			}
, 			{
				"patchline" : 				{
					"color" : [ 0.0, 0.0, 0.0, 1.0 ],
					"destination" : [ "obj-41", 0 ],
					"disabled" : 0,
					"hidden" : 0,
					"source" : [ "obj-39", 0 ]
				}

			}
, 			{
				"patchline" : 				{
					"color" : [ 0.0, 0.0, 0.0, 1.0 ],
					"destination" : [ "obj-41", 1 ],
					"disabled" : 0,
					"hidden" : 0,
					"source" : [ "obj-40", 0 ]
				}

			}
, 			{
				"patchline" : 				{
					"color" : [ 0.0, 0.0, 0.0, 1.0 ],
					"destination" : [ "obj-42", 1 ],
					"disabled" : 0,
					"hidden" : 0,
					"midpoints" : [ 151.5, 165.0, 184.833328, 165.0 ],
					"source" : [ "obj-41", 0 ]
				}

			}
, 			{
				"patchline" : 				{
					"color" : [ 0.0, 0.0, 0.0, 1.0 ],
					"destination" : [ "obj-43", 1 ],
					"disabled" : 0,
					"hidden" : 0,
					"midpoints" : [ 168.5, 305.0, 105.0, 305.0 ],
					"source" : [ "obj-42", 0 ]
				}

			}
, 			{
				"patchline" : 				{
					"color" : [ 0.0, 0.0, 0.0, 1.0 ],
					"destination" : [ "obj-53", 0 ],
					"disabled" : 0,
					"hidden" : 0,
					"source" : [ "obj-43", 0 ]
				}

			}
, 			{
				"patchline" : 				{
					"color" : [ 0.0, 0.0, 0.0, 1.0 ],
					"destination" : [ "obj-15", 0 ],
					"disabled" : 0,
					"hidden" : 0,
					"source" : [ "obj-44", 0 ]
				}

			}
, 			{
				"patchline" : 				{
					"color" : [ 0.0, 0.0, 0.0, 1.0 ],
					"destination" : [ "obj-46", 0 ],
					"disabled" : 0,
					"hidden" : 0,
					"midpoints" : [ 488.5, 148.0, 473.0, 148.0, 473.0, 92.0, 358.5, 92.0 ],
					"source" : [ "obj-45", 0 ]
				}

			}
, 			{
				"patchline" : 				{
					"color" : [ 0.0, 0.0, 0.0, 1.0 ],
					"destination" : [ "obj-32", 0 ],
					"disabled" : 0,
					"hidden" : 0,
					"source" : [ "obj-46", 0 ]
				}

			}
, 			{
				"patchline" : 				{
					"color" : [ 0.0, 0.0, 0.0, 1.0 ],
					"destination" : [ "obj-48", 0 ],
					"disabled" : 0,
					"hidden" : 0,
					"source" : [ "obj-47", 0 ]
				}

			}
, 			{
				"patchline" : 				{
					"color" : [ 0.0, 0.0, 0.0, 1.0 ],
					"destination" : [ "obj-51", 0 ],
					"disabled" : 0,
					"hidden" : 0,
					"source" : [ "obj-48", 0 ]
				}

			}
, 			{
				"patchline" : 				{
					"color" : [ 0.8, 0.8, 0.8, 0.9 ],
					"destination" : [ "obj-57", 0 ],
					"disabled" : 0,
					"hidden" : 0,
					"source" : [ "obj-50", 0 ]
				}

			}
, 			{
				"patchline" : 				{
					"color" : [ 0.0, 0.0, 0.0, 1.0 ],
					"destination" : [ "obj-50", 0 ],
					"disabled" : 0,
					"hidden" : 0,
					"source" : [ "obj-53", 0 ]
				}

			}
, 			{
				"patchline" : 				{
					"color" : [ 0.8, 0.8, 0.8, 0.9 ],
					"destination" : [ "obj-52", 0 ],
					"disabled" : 0,
					"hidden" : 0,
					"source" : [ "obj-56", 0 ]
				}

			}
, 			{
				"patchline" : 				{
					"color" : [ 0.8, 0.8, 0.8, 0.9 ],
					"destination" : [ "obj-49", 1 ],
					"disabled" : 0,
					"hidden" : 0,
					"midpoints" : [ 103.0, 408.0 ],
					"source" : [ "obj-57", 0 ]
				}

			}
, 			{
				"patchline" : 				{
					"color" : [ 0.8, 0.8, 0.8, 0.9 ],
					"destination" : [ "obj-49", 0 ],
					"disabled" : 0,
					"hidden" : 0,
					"source" : [ "obj-57", 0 ]
				}

			}
, 			{
				"patchline" : 				{
					"color" : [ 0.8, 0.8, 0.8, 0.9 ],
					"destination" : [ "obj-57", 1 ],
					"disabled" : 0,
					"hidden" : 0,
					"source" : [ "obj-58", 0 ]
				}

			}
, 			{
				"patchline" : 				{
					"color" : [ 0.8, 0.8, 0.8, 0.9 ],
					"destination" : [ "obj-43", 0 ],
					"disabled" : 0,
					"hidden" : 0,
					"source" : [ "obj-59", 0 ]
				}

			}
, 			{
				"patchline" : 				{
					"color" : [ 0.8, 0.8, 0.8, 0.9 ],
					"destination" : [ "obj-69", 0 ],
					"disabled" : 0,
					"hidden" : 0,
					"source" : [ "obj-59", 0 ]
				}

			}
, 			{
				"patchline" : 				{
					"color" : [ 0.8, 0.8, 0.8, 0.9 ],
					"destination" : [ "obj-59", 0 ],
					"disabled" : 0,
					"hidden" : 0,
					"source" : [ "obj-61", 0 ]
				}

			}
, 			{
				"patchline" : 				{
					"color" : [ 0.8, 0.8, 0.8, 0.9 ],
					"destination" : [ "obj-65", 0 ],
					"disabled" : 0,
					"hidden" : 0,
					"source" : [ "obj-62", 0 ]
				}

			}
, 			{
				"patchline" : 				{
					"color" : [ 0.8, 0.8, 0.8, 0.9 ],
					"destination" : [ "obj-66", 0 ],
					"disabled" : 0,
					"hidden" : 0,
					"source" : [ "obj-62", 1 ]
				}

			}
, 			{
				"patchline" : 				{
					"color" : [ 0.8, 0.8, 0.8, 0.9 ],
					"destination" : [ "obj-69", 1 ],
					"disabled" : 0,
					"hidden" : 0,
					"source" : [ "obj-63", 0 ]
				}

			}
, 			{
				"patchline" : 				{
					"color" : [ 0.8, 0.8, 0.8, 0.9 ],
					"destination" : [ "obj-50", 1 ],
					"disabled" : 0,
					"hidden" : 0,
					"source" : [ "obj-64", 0 ]
				}

			}
, 			{
				"patchline" : 				{
					"color" : [ 0.8, 0.8, 0.8, 0.9 ],
					"destination" : [ "obj-63", 0 ],
					"disabled" : 0,
					"hidden" : 0,
					"source" : [ "obj-65", 0 ]
				}

			}
, 			{
				"patchline" : 				{
					"color" : [ 0.8, 0.8, 0.8, 0.9 ],
					"destination" : [ "obj-64", 0 ],
					"disabled" : 0,
					"hidden" : 0,
					"source" : [ "obj-66", 0 ]
				}

			}
, 			{
				"patchline" : 				{
					"color" : [ 0.8, 0.8, 0.8, 0.9 ],
					"destination" : [ "obj-59", 0 ],
					"disabled" : 0,
					"hidden" : 0,
					"source" : [ "obj-68", 0 ]
				}

			}
, 			{
				"patchline" : 				{
					"color" : [ 0.8, 0.8, 0.8, 0.9 ],
					"destination" : [ "obj-57", 0 ],
					"disabled" : 0,
					"hidden" : 0,
					"source" : [ "obj-69", 0 ]
				}

			}
 ],
		"dependency_cache" : [  ]
	}

}
